<?xml version="1.0" standalone="no"?>
<!DOCTYPE svg PUBLIC "-//W3C//DTD SVG 1.1//EN" "http://www.w3.org/Graphics/SVG/1.1/DTD/svg11.dtd" >
<svg xmlns="http://www.w3.org/2000/svg" xmlns:xlink="http://www.w3.org/1999/xlink" version="1.1">
<metadata>
Created by FontForge 20161013 at Mon Mar  3 18:16:38 2014
 By ,,,
Copyright (c) 2014 by Gumpita Rahayu. All rights reserved.
</metadata>
<defs>
<font id="Luzern-ExtraBold" horiz-adv-x="414" >
  <font-face 
    font-family="Luzern"
    font-weight="800"
    font-stretch="normal"
    units-per-em="1000"
    panose-1="0 0 8 0 0 0 0 0 0 0"
    ascent="760"
    descent="-240"
    x-height="437"
    cap-height="700"
    bbox="-32 -251 1055 916"
    underline-thickness="20"
    underline-position="-367"
    unicode-range="U+0020-FB04"
  />
<missing-glyph horiz-adv-x="284" 
 />
    <glyph glyph-name="AE" unicode="AE" horiz-adv-x="893" 
d="M611 442h244v-130h-244v-182h244v-130h-375v158h-223l-96 -158h-130l399 700h425v-130h-244v-128zM480 537l-150 -250h150v250z" />
    <glyph glyph-name="ae" unicode="ae" horiz-adv-x="665" 
d="M634 146v-17q0 -55 -39.5 -92t-95.5 -37h-21q-52 0 -85 30v-30h-107v30q-39 -30 -93 -30h-13q-62 0 -103 32.5t-41 88.5v26q0 51 38 86t93 35h26q49 0 83 -30v64q0 15 -11 26.5t-27 11.5h-56q-16 0 -27 -11.5t-11 -26.5v-7h-107v7q0 56 40 95.5t95 39.5h51q29 0 50.5 -6
t32 -13t29.5 -22q36 41 88 41h76q55 0 95 -39.5t40 -95.5v-100h-230v-73q0 -15 11.5 -26.5t27.5 -11.5h46q16 0 27 11.5t11 26.5v17h107zM517 269v47q0 8 -8.5 16t-19.5 8h-56q-11 0 -20 -8t-9 -16v-47h113zM286 121v26q0 14 -12.5 24t-30.5 10h-42q-58 0 -58 -34v-26
q0 -34 49 -34h46q48 0 48 34z" />
    <glyph glyph-name="OE" unicode="OE" horiz-adv-x="774" 
d="M193 700h77q61 0 88 -31v31h374v-130h-244v-128h244v-130h-244v-182h244v-130h-374v31q-31 -31 -90 -31h-75q-62 0 -105 46.5t-43 110.5v386q0 64 43 110.5t105 46.5zM312 570h-91q-17 0 -27.5 -7t-14 -24t-4 -24t-0.5 -29v-272q0 -54 12 -70q11 -14 34 -14h91q17 0 27 7
t13.5 24t4 24t0.5 29v272q0 55 -13 71q-12 13 -32 13z" />
    <glyph glyph-name="oe" unicode="oe" horiz-adv-x="643" 
d="M612 149v-16q0 -56 -41 -97.5t-98 -41.5h-48q-67 0 -104 24q-35 -24 -78 -24h-72q-57 0 -98.5 40.5t-41.5 98.5v165q0 58 42 98.5t98 40.5h48q68 0 102 -25q36 25 80 25h72q57 0 98 -41t41 -98v-114h-229v-58l-1 -7q6 -22 28 -22h54q10 0 18 7.5t8 18.5v26h122zM216 335
h-36q-7 0 -12 -2t-8 -6.5t-4.5 -9t-2 -11.5t-1 -11.5t0 -12.5t0.5 -11v-111q0 -4 -0.5 -14.5t0 -14t1.5 -11t4 -10.5t8 -6.5t13 -5t19 -1.5h18q14 0 21.5 1t15.5 8t8 21v162q0 18 -1.5 26t-11.5 14t-32 6zM500 259v24v6.5v7.5t-0.5 7.5t-1 8t-1.5 7t-3 6.5t-5 4.5t-6.5 3.5
t-8.5 1h-48q-38 0 -43 -23v-14v-39h117z" />
    <glyph glyph-name="ff" unicode="ff" horiz-adv-x="572" 
d="M359 437v153q0 45 32.5 77.5t78.5 32.5h66v-111h-28q-12 0 -20 -8t-8 -20v-124h64v-102h-64v-335h-121v335h-154v-335h-121v335h-63v102h63v153q0 45 32.5 77.5t78.5 32.5h66v-111h-28q-11 0 -19.5 -8t-8.5 -20v-124h154z" />
    <glyph glyph-name="fi" unicode="fi" horiz-adv-x="492" 
d="M446 437v-437h-131v335h-110v-335h-121v335h-63v102h63v153q0 45 32.5 77.5t78.5 32.5h66v-111h-28q-11 0 -19.5 -8t-8.5 -20v-124h241z" />
    <glyph glyph-name="fl" unicode="fl" horiz-adv-x="492" 
d="M446 700v-700h-131v589h-82q-11 0 -19.5 -8t-8.5 -20v-124h64v-102h-64v-335h-121v335h-63v102h63v153q0 45 32.5 77.5t78.5 32.5h251z" />
    <glyph glyph-name="ffi" unicode="ffi" horiz-adv-x="768" 
d="M722 437v-437h-131v335h-110v-335h-121v335h-155v-335h-121v335h-63v102h63v153q0 45 32.5 77.5t78.5 32.5h66v-111h-28q-11 0 -19.5 -8t-8.5 -20v-124h155v153q0 45 32.5 77.5t78.5 32.5h66v-111h-28q-11 0 -19.5 -8t-8.5 -20v-124h241z" />
    <glyph glyph-name="ffl" unicode="ffl" horiz-adv-x="768" 
d="M722 700v-700h-131v589h-82q-11 0 -19.5 -8t-8.5 -20v-124h64v-102h-64v-335h-121v335h-155v-335h-121v335h-63v102h63v153q0 45 32.5 77.5t78.5 32.5h66v-111h-28q-11 0 -19.5 -8t-8.5 -20v-124h155v153q0 45 32.5 77.5t78.5 32.5h251z" />
    <glyph glyph-name=".notdef" horiz-adv-x="284" 
 />
    <glyph glyph-name=".null" horiz-adv-x="0" 
 />
    <glyph glyph-name="nonmarkingreturn" horiz-adv-x="333" 
 />
    <glyph glyph-name="space" unicode=" " horiz-adv-x="284" 
 />
    <glyph glyph-name="exclam" unicode="!" horiz-adv-x="187" 
d="M132 143h-77l-20 557h117zM142 0h-97v89h97v-89z" />
    <glyph glyph-name="quotedbl" unicode="&#x22;" horiz-adv-x="293" 
d="M40 700h97v-89l-37 -51h-43l32 51h-49v89zM156 700h97v-89l-37 -51h-43l32 51h-49v89z" />
    <glyph glyph-name="numbersign" unicode="#" horiz-adv-x="498" 
d="M401 216v-216h-97v216h-109v-216h-98v216h-55v98h55v119h-55v97h55v170h98v-170h109v170h97v-170h55v-97h-55v-119h55v-98h-55zM304 314v119h-109v-119h109z" />
    <glyph glyph-name="dollar" unicode="$" horiz-adv-x="493" 
d="M255 415h67q52 0 89 -37.5t37 -88.5v-148q0 -62 -43.5 -104.5t-103.5 -42.5h-46v-57h-36v57h-37q-60 0 -103.5 42.5t-43.5 104.5v70h130v-51q0 -14 11 -25t25 -11h18v170h-48q-55 0 -95.5 37.5t-40.5 89.5v132q0 62 43.5 104.5t103.5 42.5h37v58h36v-58h46
q59 0 103 -43.5t44 -103.5v-71h-130v53q0 14 -10.5 24.5t-25.5 10.5h-27v-155zM165 535v-94q0 -11 10.5 -18.5t25.5 -7.5h18v155h-18q-14 0 -25 -10.5t-11 -24.5zM255 124h27q15 0 25.5 10.5t10.5 25.5v99q0 14 -13.5 24.5t-32.5 10.5h-17v-170z" />
    <glyph glyph-name="percent" unicode="%" horiz-adv-x="761" 
d="M204 -20h-98l462 757h98zM168 719h33q51 0 87 -35.5t36 -86.5v-46q0 -50 -36 -86.5t-87 -36.5h-33q-51 0 -87 36.5t-36 86.5v46q0 51 36 86.5t87 35.5zM201 639h-33q-17 0 -29.5 -12.5t-12.5 -29.5v-46q0 -17 12.5 -29.5t29.5 -12.5h33q17 0 29.5 12.5t12.5 29.5v46
q0 17 -12.5 29.5t-29.5 12.5zM560 290h33q51 0 87 -35.5t36 -86.5v-46q0 -50 -36 -86.5t-87 -36.5h-33q-51 0 -87 36.5t-36 86.5v46q0 51 36 86.5t87 35.5zM593 210h-33q-17 0 -29.5 -12.5t-12.5 -29.5v-46q0 -17 12.5 -29.5t29.5 -12.5h33q17 0 29.5 12.5t12.5 29.5v46
q0 17 -12.5 29.5t-29.5 12.5z" />
    <glyph glyph-name="ampersand" unicode="&#x26;" horiz-adv-x="550" 
d="M67 135v139q0 39 21.5 72t55.5 50q-26 15 -43 46.5t-17 65.5v57q0 56 40.5 95.5t95.5 39.5h101q55 0 95 -39.5t40 -95.5h-97q0 16 -11 27t-27 11h-91q-20 0 -34.5 -17.5t-14.5 -40.5v-37q0 -28 20.5 -48.5t48.5 -20.5h108v62h97v-62h47v-87h-47v-217q0 -55 -39.5 -95
t-95.5 -40h-117q-55 0 -95.5 39.5t-40.5 95.5zM358 352h-108q-40 0 -63 -22t-23 -56v-109q0 -29 17.5 -48.5t41.5 -19.5h67q28 0 48 19.5t20 48.5v187z" />
    <glyph glyph-name="quotesingle" unicode="'" horiz-adv-x="177" 
d="M40 700h97v-89l-37 -51h-43l32 51h-49v89z" />
    <glyph glyph-name="parenleft" unicode="(" horiz-adv-x="273" 
d="M252 11v-98q-80 0 -139.5 41.5t-59.5 98.5v528q0 56 59.5 97t139.5 41v-98q-41 0 -71 -20.5t-30 -49.5v-468q0 -30 30 -51t71 -21z" />
    <glyph glyph-name="parenright" unicode=")" horiz-adv-x="273" 
d="M21 -87v98q41 0 71 21t30 51v468q0 29 -30 49.5t-71 20.5v98q80 0 139.5 -41t59.5 -97v-528q0 -57 -59.5 -98.5t-139.5 -41.5z" />
    <glyph glyph-name="asterisk" unicode="*" horiz-adv-x="320" 
d="M285 523l-37 -38l-63 49v-64h-54v61l-61 -47l-35 39l75 62l-74 62l34 40l61 -48v61h54v-62l62 49l37 -40l-74 -63z" />
    <glyph glyph-name="plus" unicode="+" horiz-adv-x="399" 
d="M364 272v-98h-116v-117h-98v117h-116v98h116v115h98v-115h116z" />
    <glyph glyph-name="comma" unicode="," horiz-adv-x="165" 
d="M34 89h97v-89l-27 -51h-43l22 51h-49v89z" />
    <glyph glyph-name="hyphen" unicode="-" horiz-adv-x="260" 
d="M227 174h-194v98h194v-98z" />
    <glyph glyph-name="period" unicode="." horiz-adv-x="165" 
d="M131 0h-97v89h97v-89z" />
    <glyph glyph-name="slash" unicode="/" horiz-adv-x="403" 
d="M115 -26h-98l271 763h98z" />
    <glyph glyph-name="zero" unicode="0" horiz-adv-x="524" 
d="M219 700h87q76 0 129 -53t53 -129v-341q0 -76 -53 -129.5t-129 -53.5h-87q-75 0 -129 53.5t-54 129.5v341q0 76 53.5 129t129.5 53zM287 589h-49q-37 0 -63.5 -27t-26.5 -63v-303q0 -37 26.5 -63.5t63.5 -26.5h49q36 0 62.5 26.5t26.5 63.5v303q0 36 -26.5 63t-62.5 27z
" />
    <glyph glyph-name="one" unicode="1" horiz-adv-x="317" 
d="M148 700h87v-700h-112v557l-46 -32l-53 79z" />
    <glyph glyph-name="two" unicode="2" horiz-adv-x="513" 
d="M40 0v187q0 89 53.5 150t129.5 61h59q29 0 49.5 17.5t20.5 42.5v50q0 30 -20.5 50.5t-49.5 20.5h-59q-29 0 -50 -18t-21 -43v-35h-112v35q0 76 53.5 129t129.5 53h59q75 0 129 -56.5t54 -135.5v-50q0 -70 -54 -121t-129 -51h-59q-29 0 -50 -29t-21 -70v-75h304v-112h-416
z" />
    <glyph glyph-name="three" unicode="3" horiz-adv-x="493" 
d="M346 177v76q0 21 -21 36.5t-49 15.5h-105v111h105q28 0 49 28.5t21 67.5q0 27 -21 47t-49 20h-69q-25 0 -43 -18t-18 -43v-35h-112v35q0 76 53.5 129t129.5 53h59q73 0 127.5 -52t54.5 -123v-45q0 -34 -18 -63.5t-50 -46.5q30 -18 49.5 -50.5t19.5 -66.5v-76
q0 -75 -54.5 -129t-128.5 -54h-61q-76 0 -129 56t-53 136h112q0 -33 20.5 -56.5t49.5 -23.5h61q29 0 49.5 21t20.5 50z" />
    <glyph glyph-name="four" unicode="4" horiz-adv-x="568" 
d="M27 138v106l341 456h109v-450h55v-112h-55v-138h-112v138h-338zM177 250h188v258z" />
    <glyph glyph-name="five" unicode="5" horiz-adv-x="500" 
d="M335 177v77q0 30 -17.5 50.5t-43.5 20.5q-38 0 -113.5 -0.5t-112.5 -0.5v376h388v-111h-276v-152h114q75 0 129 -54t54 -129v-77q0 -75 -54 -129t-129 -54h-59q-76 0 -129.5 56.5t-53.5 135.5h112q0 -33 21 -56.5t50 -23.5h50q29 0 49.5 21t20.5 50z" />
    <glyph glyph-name="six" unicode="6" horiz-adv-x="502" 
d="M155 518v-114q47 45 90 45h39q75 0 129 -53.5t54 -129.5v-89q0 -76 -53.5 -129.5t-129.5 -53.5h-59q-75 0 -128.5 54t-53.5 129v341q0 75 53.5 128.5t128.5 53.5h59q71 0 122 -53t51 -129v-35h-111v35q0 25 -18.5 43t-43.5 18h-68q-25 0 -43 -18t-18 -43zM346 177v89
q0 30 -21 50.5t-50 20.5h-40q-33 0 -56.5 -20.5t-23.5 -50.5v-89q0 -29 24 -50t56 -21h40q29 0 50 21t21 50z" />
    <glyph glyph-name="seven" unicode="7" horiz-adv-x="472" 
d="M430 700v-103l-231 -597h-116l228 589h-269v111h388z" />
    <glyph glyph-name="eight" unicode="8" horiz-adv-x="517" 
d="M475 208v-31q0 -76 -53.5 -129.5t-129.5 -53.5h-69q-75 0 -128 54t-53 129v31q0 48 23.5 91t61.5 67q-55 47 -55 125v66q0 60 45 101.5t111 41.5h60q62 0 108.5 -43.5t46.5 -100.5v-65q0 -75 -54 -124q36 -24 61 -68t25 -91zM195 557v-95q0 -18 12.5 -30.5t30.5 -12.5h41
q18 0 30.5 12.5t12.5 30.5v95q0 13 -12.5 22.5t-30.5 9.5h-41q-18 0 -30.5 -9.5t-12.5 -22.5zM163 246v-79q0 -25 21 -43t49 -18h50q29 0 49.5 18t20.5 43v79q0 25 -21.5 43t-51.5 18h-47q-28 0 -49 -18t-21 -43z" />
    <glyph glyph-name="nine" unicode="9" horiz-adv-x="510" 
d="M355 176v114q-47 -45 -90 -45h-39q-75 0 -129 53.5t-54 129.5v89q0 76 53.5 129.5t129.5 53.5h59q75 0 128.5 -54t53.5 -129v-341q0 -75 -53.5 -128.5t-128.5 -53.5h-59q-71 0 -122 53t-51 129v35h111v-35q0 -25 18.5 -43t43.5 -18h68q25 0 43 18t18 43zM164 517v-89
q0 -30 21 -50.5t50 -20.5h40q33 0 56.5 20.5t23.5 50.5v89q0 29 -24 50t-56 21h-40q-29 0 -50 -21t-21 -50z" />
    <glyph glyph-name="colon" unicode=":" horiz-adv-x="165" 
d="M131 217h-97v89h97v-89zM131 0h-97v89h97v-89z" />
    <glyph glyph-name="semicolon" unicode=";" horiz-adv-x="165" 
d="M131 217h-97v89h97v-89zM34 89h97v-89l-27 -51h-43l22 51h-49v89z" />
    <glyph glyph-name="less" unicode="&#x3c;" horiz-adv-x="357" 
d="M315 370v-83l-154 -64l154 -63v-83l-273 120v53z" />
    <glyph glyph-name="equal" unicode="=" horiz-adv-x="360" 
d="M34 340h292v-78h-292v78zM34 182h292v-78h-292v78z" />
    <glyph glyph-name="greater" unicode="&#x3e;" horiz-adv-x="357" 
d="M42 77v83l154 63l-154 64v83l273 -120v-53z" />
    <glyph glyph-name="question" unicode="?" horiz-adv-x="485" 
d="M39 469v110q0 58 50.5 98.5t117.5 40.5h101q56 0 97 -40.5t41 -98.5v-123q0 -65 -44.5 -116.5t-110.5 -51.5q-19 0 -29.5 -16t-10.5 -40v-96h-111v96q0 67 38.5 117t102.5 50q23 0 38.5 16.5t15.5 40.5v94q0 24 -16 40t-40 16h-72q-23 0 -39.5 -16t-16.5 -40v-81h-112z
M252 0h-112v89h112v-89z" />
    <glyph glyph-name="at" unicode="@" horiz-adv-x="717" 
d="M567 -50h-272q-107 0 -182.5 70t-75.5 168v224q0 98 75.5 168t182.5 70h133q105 0 181.5 -70.5t76.5 -167.5v-216q0 -40 -32 -72.5t-68 -32.5h-38q-68 0 -94 39q-31 -39 -74 -39h-47q-56 0 -95.5 40t-39.5 95v108q0 56 39.5 96t95.5 40h47q38 0 68 -33v33h97v-260
q0 -32 23 -32h8q13 0 18 6.5t5 25.5v202q0 62 -50.5 106.5t-120.5 44.5h-133q-70 0 -120.5 -44.5t-50.5 -106.5v-224q0 -62 50.5 -106.5t120.5 -44.5h272v-87zM448 226v108q0 16 -11 27.5t-27 11.5h-77q-16 0 -27 -11.5t-11 -27.5v-108q0 -16 11 -27t27 -11h77q15 0 26.5 11
t11.5 27z" />
    <glyph glyph-name="A" unicode="A" horiz-adv-x="528" 
d="M198 157l-35 -157h-135l181 700h119l177 -700h-133l-35 157h-139zM269 488l-51 -201h99z" />
    <glyph glyph-name="B" unicode="B" horiz-adv-x="530" 
d="M56 700h234q70 0 118 -43t48 -105v-52q0 -37 -8.5 -59t-38.5 -40q35 -19 57 -53.5t22 -69.5v-130q0 -62 -48 -105t-118 -43h-266v700zM186 444h104q14 0 24.5 11t10.5 25v62q0 11 -10.5 19.5t-24.5 8.5h-104v-126zM186 130h126q19 0 33 13.5t14 32.5v92q0 19 -14 32.5
t-33 13.5h-126v-184z" />
    <glyph glyph-name="C" unicode="C" horiz-adv-x="490" 
d="M453 227v-79q0 -62 -43.5 -105t-104.5 -43h-118q-60 0 -103.5 42.5t-43.5 105.5v405q0 62 42.5 104.5t104.5 42.5h118q62 0 105 -43t43 -104v-71h-130v53q0 14 -11 24.5t-26 10.5h-80q-14 0 -25 -10.5t-11 -24.5v-369q0 -14 11 -25t25 -11h80q15 0 26 11t11 25v61h130z
" />
    <glyph glyph-name="D" unicode="D" horiz-adv-x="527" 
d="M56 700h283q63 0 105.5 -49t42.5 -116v-369q0 -47 -20 -84q-19 -38 -53 -60t-75 -22h-283v700zM186 130h135q15 0 26 11t11 25v369q0 14 -11 24.5t-26 10.5h-135v-440z" />
    <glyph glyph-name="E" unicode="E" horiz-adv-x="462" 
d="M56 0v700h374v-130h-244v-128h244v-130h-244v-182h244v-130h-374z" />
    <glyph glyph-name="F" unicode="F" horiz-adv-x="462" 
d="M56 0v700h374v-130h-244v-128h244v-130h-244v-312h-130z" />
    <glyph glyph-name="G" unicode="G" horiz-adv-x="500" 
d="M332 492v43q0 14 -13.5 24.5t-31.5 10.5h-81q-14 0 -25 -10.5t-11 -24.5v-369q0 -14 11 -25t25 -11h90q14 0 25 11t11 25v118h-95v129h226v-265q0 -63 -44 -105.5t-104 -42.5h-127q-60 0 -104 42.5t-44 105.5v405q0 62 43 104.5t105 42.5h127q61 0 104.5 -42.5
t43.5 -104.5v-61h-131z" />
    <glyph glyph-name="H" unicode="H" horiz-adv-x="532" 
d="M345 312h-158v-312h-131v700h131v-249h158v249h131v-700h-131v312z" />
    <glyph glyph-name="I" unicode="I" horiz-adv-x="247" 
d="M59 700h129v-700h-129v700z" />
    <glyph glyph-name="J" unicode="J" horiz-adv-x="469" 
d="M424 700v-558q0 -62 -46.5 -105t-110.5 -43h-84q-60 0 -104 42.5t-44 105.5v109h131v-91q0 -11 8 -18.5t19 -7.5h74q11 0 18.5 7.5t7.5 18.5v410h-136v130h267z" />
    <glyph glyph-name="K" unicode="K" horiz-adv-x="524" 
d="M201 306l-14 -15v-291h-131v700h131v-212l154 212h145l-195 -284l214 -416h-142z" />
    <glyph glyph-name="L" unicode="L" horiz-adv-x="423" 
d="M187 130h216v-130h-347v700h131v-570z" />
    <glyph glyph-name="M" unicode="M" horiz-adv-x="708" 
d="M652 0h-130v318l-120 -318h-96l-120 319v-319h-130v700h125l173 -485l173 485h125v-700z" />
    <glyph glyph-name="N" unicode="N" horiz-adv-x="544" 
d="M488 0h-116l-186 405v-405h-130v700h125l177 -380v380h130v-700z" />
    <glyph glyph-name="O" unicode="O" horiz-adv-x="501" 
d="M187 700h127q60 0 103.5 -46.5t43.5 -110.5v-386q0 -64 -43.5 -110.5t-103.5 -46.5h-127q-62 0 -105 46.5t-43 110.5v386q0 64 43 110.5t105 46.5zM286 570h-71q-19 0 -32.5 -13.5t-13.5 -31.5v-350q0 -18 13.5 -31.5t32.5 -13.5h71q18 0 31.5 13.5t13.5 31.5v350
q0 18 -13.5 31.5t-31.5 13.5z" />
    <glyph glyph-name="P" unicode="P" horiz-adv-x="495" 
d="M56 700h252q60 0 104 -43t44 -104v-131q0 -60 -44 -104t-104 -44h-122v-274h-130v700zM186 404h104q14 0 25 11t11 25v95q0 14 -11 24.5t-25 10.5h-104v-166z" />
    <glyph glyph-name="Q" unicode="Q" horiz-adv-x="530" 
d="M188 700h127q60 0 103.5 -46.5t43.5 -110.5v-386q0 -42 -19 -82l59 -58l-93 -92l-75 75h-146q-62 0 -105 46.5t-43 110.5v386q0 64 43 110.5t105 46.5zM287 570h-71q-19 0 -33 -13.5t-14 -31.5v-350q0 -18 14 -31.5t33 -13.5h71q18 0 31.5 13.5t13.5 31.5v350
q0 18 -13.5 31.5t-31.5 13.5z" />
    <glyph glyph-name="R" unicode="R" horiz-adv-x="502" 
d="M336 0l-92 274h-58v-274h-130v700h253q60 0 103.5 -42.5t43.5 -104.5v-131q0 -46 -23.5 -82.5t-60.5 -54.5l95 -285h-131zM186 404h104q14 0 25 11t11 25v95q0 14 -11 24.5t-25 10.5h-104v-166z" />
    <glyph glyph-name="S" unicode="S" horiz-adv-x="489" 
d="M204 415h121q52 0 89 -37.5t37 -88.5v-148q0 -62 -43.5 -104.5t-103.5 -42.5h-119q-60 0 -103.5 42.5t-43.5 104.5v70h130v-51q0 -14 11 -25t25 -11h81q15 0 25.5 10.5t10.5 25.5v99q0 14 -13.5 24.5t-32.5 10.5h-101q-55 0 -95.5 37.5t-40.5 89.5v132q0 62 43.5 104.5
t103.5 42.5h119q59 0 103 -43.5t44 -103.5v-71h-130v53q0 14 -10.5 24.5t-25.5 10.5h-81q-14 0 -25 -10.5t-11 -24.5v-94q0 -11 10.5 -18.5t25.5 -7.5z" />
    <glyph glyph-name="T" unicode="T" horiz-adv-x="418" 
d="M144 570h-124v130h378v-130h-124v-570h-130v570z" />
    <glyph glyph-name="U" unicode="U" horiz-adv-x="505" 
d="M451 700v-553q0 -62 -43.5 -104.5t-103.5 -42.5h-100q-63 0 -110 43t-47 104v553h131v-535q0 -14 10.5 -24.5t25.5 -10.5h71q14 0 25 10.5t11 24.5v535h130z" />
    <glyph glyph-name="V" unicode="V" horiz-adv-x="531" 
d="M268 279l103 421h143l-186 -700h-119l-192 700h145z" />
    <glyph glyph-name="W" unicode="W" horiz-adv-x="748" 
d="M228 361l83 339h125l86 -340l58 340h143l-135 -700h-122l-90 381l-90 -381h-120l-141 700h142z" />
    <glyph glyph-name="X" unicode="X" horiz-adv-x="579" 
d="M289 463l116 237h149l-184 -355l179 -345h-150l-110 228l-110 -228h-148l169 345l-175 355h148z" />
    <glyph glyph-name="Y" unicode="Y" horiz-adv-x="519" 
d="M187 337l-162 363h136l91 -215l103 215h139l-177 -363v-337h-130v337z" />
    <glyph glyph-name="Z" unicode="Z" horiz-adv-x="459" 
d="M19 -1v117l254 453h-254v131h412v-118l-255 -453h255v-130h-412z" />
    <glyph glyph-name="bracketleft" unicode="[" horiz-adv-x="245" 
d="M49 -87v806h175v-98h-77v-610h77v-98h-175z" />
    <glyph glyph-name="backslash" unicode="\" horiz-adv-x="403" 
d="M386 -26h-98l-271 763h98z" />
    <glyph glyph-name="bracketright" unicode="]" horiz-adv-x="245" 
d="M98 11v610h-77v98h175v-806h-175v98h77z" />
    <glyph glyph-name="asciicircum" unicode="^" horiz-adv-x="372" 
d="M186 615l-64 -115h-90l108 200h92l108 -200h-90z" />
    <glyph glyph-name="underscore" unicode="_" horiz-adv-x="503" 
d="M56 48h391v-78h-391v78z" />
    <glyph glyph-name="grave" unicode="`" horiz-adv-x="193" 
d="M99 490l-70 119h107l30 -119h-67z" />
    <glyph glyph-name="a" unicode="a" horiz-adv-x="471" 
d="M175 437h44q40 0 75 -45v45h131v-437h-131v38q-34 -44 -75 -44h-44q-58 0 -98.5 41t-40.5 98v165q0 57 40.5 98t98.5 41zM248 335h-45q-19 0 -32.5 -13.5t-13.5 -32.5v-147q0 -18 13.5 -31.5t32.5 -13.5h45q19 0 32.5 13.5t13.5 31.5v147q0 19 -13.5 32.5t-32.5 13.5z
" />
    <glyph glyph-name="b" unicode="b" horiz-adv-x="451" 
d="M234 437h44q58 0 98.5 -41t40.5 -98v-165q0 -57 -40.5 -98t-98.5 -41h-44q-41 0 -75 44v-38h-112v700h112v-308q35 45 75 45zM250 335h-45q-19 0 -32.5 -13.5t-13.5 -32.5v-147q0 -18 13.5 -31.5t32.5 -13.5h45q18 0 31.5 13.5t13.5 31.5v147q0 19 -13.5 32.5t-31.5 13.5
z" />
    <glyph glyph-name="c" unicode="c" horiz-adv-x="415" 
d="M384 139v-6q0 -57 -41 -98t-98 -41h-73q-60 0 -99.5 42t-39.5 103v159q0 57 40.5 98t98.5 41h73q57 0 98 -41t41 -98v-6h-122v16q0 11 -8 19t-18 8h-55q-11 0 -19 -8.5t-8 -18.5v-185q0 -10 8 -18t19 -8h55q10 0 18 7.5t8 18.5v16h122z" />
    <glyph glyph-name="d" unicode="d" horiz-adv-x="472" 
d="M175 437h44q40 0 75 -45v308h131v-700h-131v38q-34 -44 -75 -44h-44q-58 0 -98.5 41t-40.5 98v165q0 57 40.5 98t98.5 41zM248 335h-45q-19 0 -32.5 -13.5t-13.5 -32.5v-147q0 -18 13.5 -31.5t32.5 -13.5h45q19 0 32.5 13.5t13.5 31.5v147q0 19 -13.5 32.5t-32.5 13.5z
" />
    <glyph glyph-name="e" unicode="e" 
d="M383 149v-16q0 -57 -41 -98t-98 -41h-72q-59 0 -99.5 41t-40.5 98v165q0 57 40.5 98t99.5 41h72q57 0 98 -41t41 -98v-114h-230v-61q0 -10 8.5 -18t19.5 -8h54q11 0 18.5 7.5t7.5 18.5v26h122zM271 259v49q0 11 -8 19t-18 8h-64q-11 0 -19.5 -8t-8.5 -19v-49h118z" />
    <glyph glyph-name="f" unicode="f" horiz-adv-x="297" 
d="M84 437v153q0 45 32.5 77.5t78.5 32.5h66v-111h-28q-11 0 -19.5 -8t-8.5 -20v-124h64v-102h-64v-335h-121v335h-63v102h63z" />
    <glyph glyph-name="g" unicode="g" horiz-adv-x="466" 
d="M162 -60v-34q0 -19 14 -32.5t33 -13.5h44q15 0 25.5 13.5t10.5 32.5v133q-35 -45 -75 -45h-43q-56 0 -98 40t-42 99v165q0 57 40.5 98t99.5 41h43q39 0 75 -47v47h131v-540q0 -62 -40.5 -105t-98.5 -43h-101q-59 0 -99 41t-40 97v53h121zM243 335h-44q-19 0 -33 -13.5
t-14 -32.5v-147q0 -18 13.5 -31.5t33.5 -13.5h44q19 0 32.5 13.5t13.5 31.5v147q0 20 -14.5 33t-31.5 13z" />
    <glyph glyph-name="h" unicode="h" horiz-adv-x="478" 
d="M176 700v-308q31 45 75 45h44q58 0 98.5 -41t40.5 -98v-298h-122v289q0 19 -13.5 32.5t-31.5 13.5h-45q-19 0 -32.5 -13.5t-13.5 -32.5v-289h-131v700h131z" />
    <glyph glyph-name="i" unicode="i" horiz-adv-x="224" 
d="M178 495h-131v133h131v-133zM178 437v-437h-131v437h131z" />
    <glyph glyph-name="j" unicode="j" horiz-adv-x="253" 
d="M204 495h-131v133h131v-133zM207 437v-540q0 -60 -40 -104t-98 -44h-88v111h59q15 0 25.5 13.5t10.5 32.5v531h131z" />
    <glyph glyph-name="k" unicode="k" horiz-adv-x="464" 
d="M178 357l80 80h160l-136 -141l165 -296h-137l-116 206l-16 -21v-185h-131v700h131v-343z" />
    <glyph glyph-name="l" unicode="l" horiz-adv-x="224" 
d="M178 0h-131v700h131v-700z" />
    <glyph glyph-name="m" unicode="m" horiz-adv-x="715" 
d="M176 437v-45q34 45 75 45h33q52 0 84 -49q39 49 111 49h33q64 0 111 -40.5t47 -98.5v-298h-121v289q0 19 -13.5 32.5t-32.5 13.5h-43q-15 0 -26 -13.5t-11 -32.5v-289h-121v289q0 19 -14 32.5t-33 13.5h-33q-19 0 -32.5 -13.5t-13.5 -32.5v-289h-131v437h131z" />
    <glyph glyph-name="n" unicode="n" horiz-adv-x="468" 
d="M176 437v-45q34 45 76 45h15q64 0 110.5 -40.5t46.5 -98.5v-298h-131v289q0 19 -13.5 32.5t-32.5 13.5h-24q-19 0 -33 -13.5t-14 -32.5v-289h-131v437h131z" />
    <glyph glyph-name="o" unicode="o" 
d="M171 437h72q57 0 98.5 -40.5t41.5 -98.5v-165q0 -58 -41.5 -98.5t-98.5 -40.5h-72q-57 0 -98.5 40.5t-41.5 98.5v165q0 58 41.5 98.5t98.5 40.5zM234 335h-54q-10 0 -18.5 -8.5t-8.5 -18.5v-185q0 -10 8 -18t19 -8h54q11 0 19 8t8 18v185q0 10 -8.5 18.5t-18.5 8.5z" />
    <glyph glyph-name="p" unicode="p" horiz-adv-x="472" 
d="M47 437h131v-46q34 46 75 46h43q58 0 99 -41t41 -98v-165q0 -57 -41 -98t-99 -41h-43q-41 0 -75 45v-273h-131v671zM178 289v-147q0 -18 13.5 -31.5t32.5 -13.5h44q19 0 32.5 13.5t13.5 31.5v147q0 19 -14 32.5t-32 13.5h-44q-19 0 -32.5 -13.5t-13.5 -32.5z" />
    <glyph glyph-name="q" unicode="q" horiz-adv-x="472" 
d="M294 -234v273q-34 -45 -75 -45h-44q-58 0 -98.5 41t-40.5 98v165q0 57 40.5 98t98.5 41h44q41 0 75 -46v46h131v-671h-131zM294 142v147q0 19 -13.5 32.5t-32.5 13.5h-44q-19 0 -33 -13.5t-14 -32.5v-147q0 -18 14 -31.5t33 -13.5h44q19 0 32.5 13.5t13.5 31.5z" />
    <glyph glyph-name="r" unicode="r" horiz-adv-x="304" 
d="M176 437v-45q31 45 76 45h26v-102h-55q-19 0 -33 -13.5t-14 -32.5v-289h-131v437h131z" />
    <glyph glyph-name="s" unicode="s" horiz-adv-x="412" 
d="M255 292v15q0 11 -8 19.5t-20 8.5h-41q-11 0 -19.5 -8.5t-8.5 -19.5v-31q0 -7 6 -12.5t13 -5.5h79q49 0 84.5 -31.5t35.5 -76.5v-26q0 -54 -41.5 -92t-98.5 -38h-59q-60 0 -100 40.5t-40 99.5v5h121v-15q0 -11 8.5 -19t19.5 -8h41q11 0 19.5 8t8.5 19v23q0 11 -11.5 19.5
t-26.5 8.5h-60q-50 0 -85 30t-35 72v30q0 53 40.5 91.5t99.5 38.5h50q59 0 104 -39t45 -91v-15h-121z" />
    <glyph glyph-name="t" unicode="t" horiz-adv-x="318" 
d="M91 437v172h121v-172h64v-102h-64v-195q0 -12 8.5 -20t19.5 -8h28v-112h-66q-46 0 -78.5 33t-32.5 78v224h-63v102h63z" />
    <glyph glyph-name="u" unicode="u" horiz-adv-x="469" 
d="M293 0v45q-34 -45 -76 -45h-14q-65 0 -111.5 40t-46.5 99v298h131v-289q0 -19 13.5 -32.5t32.5 -13.5h25q19 0 32.5 13.5t13.5 32.5v289h131v-437h-131z" />
    <glyph glyph-name="v" unicode="v" horiz-adv-x="482" 
d="M242 171l89 266h132l-162 -437h-118l-164 437h133z" />
    <glyph glyph-name="w" unicode="w" horiz-adv-x="678" 
d="M217 208l75 229h105l66 -227l61 227h135l-135 -437h-101l-83 254l-82 -254h-102l-137 437h135z" />
    <glyph glyph-name="x" unicode="x" horiz-adv-x="484" 
d="M241 313l84 124h143l-155 -220l152 -217h-144l-80 121l-83 -121h-143l154 217l-153 220h143z" />
    <glyph glyph-name="y" unicode="y" horiz-adv-x="478" 
d="M244 169l83 268h123l-219 -688h-133l82 259l-152 429h122z" />
    <glyph glyph-name="z" unicode="z" horiz-adv-x="409" 
d="M184 106h199v-106h-359v100l208 225h-208v112h359v-107z" />
    <glyph glyph-name="braceleft" unicode="{" horiz-adv-x="340" 
d="M150 49v121q0 44 -30.5 75.5t-70.5 31.5v93q41 0 71 30t31 71v117q4 54 53.5 92.5t114.5 38.5v-97q-29 0 -50 -32.5t-21 -74.5v-64q0 -42 -17.5 -76.5t-46.5 -51.5q29 -18 46.5 -53.5t17.5 -79.5v-73q0 -43 21 -75t50 -32v-97q-68 0 -117 40t-52 96z" />
    <glyph glyph-name="bar" unicode="|" horiz-adv-x="195" 
d="M146 -126h-97v884h97v-884z" />
    <glyph glyph-name="braceright" unicode="}" horiz-adv-x="340" 
d="M190 170v-121q-3 -56 -52 -96t-117 -40v97q29 0 50 32t21 75v73q0 44 17.5 79.5t46.5 53.5q-29 17 -46.5 51.5t-17.5 76.5v64q0 42 -21 74.5t-50 32.5v97q65 0 114.5 -38.5t54.5 -92.5v-117q0 -41 30 -71t71 -30v-93q-40 0 -70.5 -31.5t-30.5 -75.5z" />
    <glyph glyph-name="asciitilde" unicode="~" horiz-adv-x="449" 
d="M364 275l40 -71q-36 -33 -56.5 -42.5t-50.5 -9.5q-22 0 -79.5 22.5t-68.5 22.5q-16 0 -27.5 -5.5t-31.5 -22.5l-46 66q34 32 55 41.5t51 9.5q21 0 72.5 -22.5t76.5 -22.5q6 0 11.5 1t8.5 2t9.5 5t9.5 6t12.5 9.5t13.5 10.5z" />
    <glyph glyph-name="exclamdown" unicode="&#xa1;" horiz-adv-x="187" 
d="M45 652h97v-89h-97v89zM55 509h77l20 -557h-117z" />
    <glyph glyph-name="cent" unicode="&#xa2;" horiz-adv-x="415" 
d="M384 139v-6q0 -65 -46 -102t-112 -37v-41h-38v41h-16q-60 0 -99.5 42t-39.5 103v159q0 57 40.5 98t98.5 41h16v77h38v-77q66 0 112 -37t46 -102v-6h-122v16q0 27 -36 27v-238q36 0 36 26v16h122zM154 308v-139q0 -2 -0.5 -18t0 -21t3.5 -15t9.5 -14t17.5 -4h4v238h-4
q-12 0 -21 -7.5t-9 -19.5z" />
    <glyph glyph-name="sterling" unicode="&#xa3;" horiz-adv-x="460" 
d="M104 384v181q0 56 43.5 95.5t102.5 39.5h31q61 0 103.5 -43t42.5 -102h-87q0 20 -16 34t-40 14h-31q-21 0 -36.5 -14t-15.5 -34v-171h148v-97h-148v-190h215v-97h-378v97h66v190h-66v97h66z" />
    <glyph glyph-name="currency" unicode="&#xa4;" horiz-adv-x="501" 
d="M35 44l65 65q-31 50 -31 109q0 57 35 110l-76 67l44 43l71 -66q53 33 109 33q54 0 106 -36l73 71l42 -42l-73 -70q38 -53 38 -110q0 -55 -32 -109l67 -66l-42 -41l-69 68q-50 -34 -110 -34q-61 0 -111 32l-65 -66zM149 218q0 -44 29.5 -73.5t73.5 -29.5t74.5 30t30.5 73
q0 44 -30.5 75t-74.5 31q-43 0 -73 -31t-30 -75z" />
    <glyph glyph-name="yen" unicode="&#xa5;" horiz-adv-x="494" 
d="M388 303v-77h-85v-38h85v-77h-85v-111h-117v111h-82v77h82v38h-82v77h82v38l-171 359h132l98 -203l101 203h132l-175 -359v-38h85z" />
    <glyph glyph-name="brokenbar" unicode="&#xa6;" horiz-adv-x="209" 
d="M153 393h-97v365h97v-365zM153 -125h-97v365h97v-365z" />
    <glyph glyph-name="section" unicode="&#xa7;" 
d="M42 270v108q0 38 38 67q-38 40 -38 94v39q0 50 37 86.5t86 36.5h85q51 0 86.5 -36.5t35.5 -86.5v-45h-102v45q0 13 -9 21.5t-21 8.5h-66q-12 0 -20.5 -8.5t-8.5 -21.5v-59q0 -11 8.5 -20t20.5 -9h57q59 0 100 -42t41 -99v-79q0 -59 -45 -95q45 -36 45 -95v-40
q0 -49 -35 -85t-87 -36h-85q-51 0 -87 36t-36 85v47h103v-37q0 -13 8.5 -21t20.5 -8h66q12 0 21 8.5t9 20.5v60q0 15 -11 26t-27 11h-58q-53 0 -92.5 36.5t-39.5 86.5zM221 407h-28q-20 0 -34 -11.5t-14 -27.5v-89q0 -20 14 -34t34 -14h28q20 0 34.5 14t14.5 34v89
q0 16 -14.5 27.5t-34.5 11.5z" />
    <glyph glyph-name="dieresis" unicode="&#xa8;" horiz-adv-x="328" 
d="M143 490h-87v89h87v-89zM272 490h-87v89h87v-89z" />
    <glyph glyph-name="copyright" unicode="&#xa9;" horiz-adv-x="810" 
d="M54 351q0 145 103 248t248 103t248 -103t103 -248t-103 -248t-248 -103t-248 103t-103 248zM117 351q0 -119 84.5 -203.5t203.5 -84.5t203.5 84.5t84.5 203.5t-84.5 203.5t-203.5 84.5t-203.5 -84.5t-84.5 -203.5zM463 232v45h60v-55q0 -37 -25.5 -62.5t-62.5 -25.5h-60
q-36 0 -61.5 25t-25.5 63v246q0 36 25 61.5t62 25.5h60q37 0 62.5 -26t25.5 -61v-40h-60v30q0 14 -8.5 25t-19.5 11h-60q-11 0 -19 -11t-8 -25v-226q0 -15 8 -26.5t19 -11.5h60q11 0 19.5 11t8.5 27z" />
    <glyph glyph-name="ordfeminine" unicode="&#xaa;" horiz-adv-x="356" 
d="M131 701h38q31 0 50 -27v27h76v-284h-76v24q-17 -27 -50 -27h-38q-36 0 -61.5 25.5t-25.5 61.5v113q0 36 25.5 61.5t61.5 25.5zM182 645h-31q-16 0 -27 -11t-11 -27v-99q0 -16 11 -27t27 -11h31q15 0 26 11t11 27v99q0 16 -11 27t-26 11z" />
    <glyph glyph-name="guillemotleft" unicode="&#xab;" horiz-adv-x="521" 
d="M270 110v-115l-229 206v44l229 207v-115l-130 -114zM480 110v-115l-229 206v44l229 207v-115l-130 -114z" />
    <glyph glyph-name="logicalnot" unicode="&#xac;" horiz-adv-x="348" 
d="M33 174v98h282v-149h-88v51h-194z" />
    <glyph glyph-name="registered" unicode="&#xae;" horiz-adv-x="810" 
d="M54 351q0 145 103 248t248 103t248 -103t103 -248t-103 -248t-248 -103t-248 103t-103 248zM117 351q0 -119 84.5 -203.5t203.5 -84.5t203.5 84.5t84.5 203.5t-84.5 203.5t-203.5 84.5t-203.5 -84.5t-84.5 -203.5zM471 312l60 -178h-63l-51 173h-49v-173h-60v421h128
q36 0 61.5 -25.5t25.5 -61.5v-73q0 -27 -15.5 -49t-36.5 -34zM426 494h-58v-126h58q15 0 26 11t11 26v53q0 15 -11 25.5t-26 10.5z" />
    <glyph glyph-name="macron" unicode="&#xaf;" horiz-adv-x="270" 
d="M33 567h204v-77h-204v77z" />
    <glyph glyph-name="degree" unicode="&#xb0;" horiz-adv-x="348" 
d="M174 715q60 0 104 -44.5t44 -104.5q0 -61 -44 -104.5t-105 -43.5t-104 43t-43 105t43.5 105.5t104.5 43.5zM174 645q-32 0 -56 -23.5t-24 -54.5q0 -33 23.5 -56.5t56.5 -23.5q31 0 54.5 24t23.5 56q0 31 -23 54.5t-55 23.5z" />
    <glyph glyph-name="plusminus" unicode="&#xb1;" horiz-adv-x="399" 
d="M364 272v-98h-116v-57h-98v57h-116v98h116v85h98v-85h116zM364 0h-330v98h330v-98z" />
    <glyph glyph-name="twosuperior" unicode="&#xb2;" horiz-adv-x="331" 
d="M35 363v125q0 55 32.5 92.5t79.5 37.5h37q15 0 26 9t11 22v31q0 16 -11 27.5t-26 11.5h-37q-16 0 -27 -9.5t-11 -23.5v-31h-74v31q0 47 32.5 80.5t79.5 33.5h37q46 0 79.5 -35.5t33.5 -84.5v-31q0 -44 -33.5 -75t-79.5 -31h-37q-16 0 -27 -16t-11 -39v-50h183v-75h-257z
" />
    <glyph glyph-name="threesuperior" unicode="&#xb3;" horiz-adv-x="326" 
d="M217 477v40q0 11 -11.5 19t-26.5 8h-51v75h51q15 0 26.5 18.5t11.5 45.5q0 14 -11.5 25t-26.5 11h-42q-13 0 -22.5 -9.5t-9.5 -23.5v-31h-75v31q0 47 33 80.5t80 33.5h36q46 0 79.5 -32.5t33.5 -76.5v-38q0 -41 -32 -66q32 -25 32 -70v-40q0 -47 -33 -80.5t-80 -33.5h-30
q-47 0 -80 36t-33 87h75q0 -20 11 -34t27 -14h30q15 0 26.5 11.5t11.5 27.5z" />
    <glyph glyph-name="acute" unicode="&#xb4;" horiz-adv-x="193" 
d="M166 609l-70 -119h-67l30 119h107z" />
    <glyph glyph-name="mu" unicode="&#xb5;" horiz-adv-x="479" 
d="M173 437v-282q0 -30 16 -49t41 -19h16q24 0 42 19.5t18 48.5v282h117v-437h-117v32q-22 -32 -60 -32h-16q-37 0 -56 32v-203h-118v608h117z" />
    <glyph glyph-name="paragraph" unicode="&#xb6;" horiz-adv-x="505" 
d="M250 622v-622h-98v415q-49 0 -86.5 39.5t-37.5 104.5q0 73 42.5 116t111.5 45h295v-98h-45v-622h-98v622h-84z" />
    <glyph glyph-name="periodcentered" unicode="&#xb7;" horiz-adv-x="332" 
d="M61 343q0 43 31 74t74 31q44 0 74.5 -31t30.5 -74t-30.5 -74t-74.5 -31t-74.5 30t-30.5 75z" />
    <glyph glyph-name="cedilla" unicode="&#xb8;" horiz-adv-x="193" 
d="M118 16l-8 -42q23 0 36.5 -16t13.5 -40q0 -29 -21.5 -52.5t-54.5 -23.5h-43l6 46h23q18 0 22 16q5 24 -13 24h-24l16 88h47z" />
    <glyph glyph-name="onesuperior" unicode="&#xb9;" horiz-adv-x="198" 
d="M94 800h65v-437h-75v345l-28 -18l-37 54z" />
    <glyph glyph-name="ordmasculine" unicode="&#xba;" horiz-adv-x="302" 
d="M126 700h50q36 0 62 -25.5t26 -61.5v-113q0 -36 -26 -61.5t-62 -25.5h-50q-36 0 -62 25.5t-26 61.5v113q0 36 26 61.5t62 25.5zM169 644h-36q-11 0 -18 -7t-7 -18v-125q0 -10 7 -17.5t18 -7.5h36q10 0 18 7.5t8 17.5v125q0 10 -8 17.5t-18 7.5z" />
    <glyph glyph-name="guillemotright" unicode="&#xbb;" horiz-adv-x="521" 
d="M41 452l229 -207v-44l-229 -206v115l130 113l-130 114v115zM251 452l229 -207v-44l-229 -206v115l130 113l-130 114v115z" />
    <glyph glyph-name="onequarter" unicode="&#xbc;" horiz-adv-x="703" 
d="M164 -20h-98l462 757h98zM104 700h65v-437h-75v345l-28 -18l-37 54zM367 92v68l200 277h71v-271h34v-74h-34v-92h-74v92h-197zM461 166h103v138z" />
    <glyph glyph-name="onehalf" unicode="&#xbd;" horiz-adv-x="779" 
d="M165 -20h-98l462 757h98zM105 700h65v-437h-75v345l-28 -18l-37 54zM489 0v125q0 55 32.5 92.5t79.5 37.5h37q15 0 26 9t11 22v31q0 16 -11 27.5t-26 11.5h-37q-16 0 -27 -9.5t-11 -23.5v-31h-74v31q0 47 32.5 80.5t79.5 33.5h37q46 0 79.5 -35.5t33.5 -84.5v-31
q0 -44 -33.5 -75t-79.5 -31h-37q-16 0 -27 -16t-11 -39v-50h183v-75h-257z" />
    <glyph glyph-name="threequarters" unicode="&#xbe;" horiz-adv-x="793" 
d="M234 -20h-98l462 757h98zM215 377v40q0 11 -11.5 19t-26.5 8h-51v75h51q15 0 26.5 18.5t11.5 45.5q0 14 -11.5 25t-26.5 11h-42q-13 0 -22.5 -9.5t-9.5 -23.5v-31h-75v31q0 47 33 80.5t80 33.5h36q46 0 79.5 -32.5t33.5 -76.5v-38q0 -41 -32 -66q32 -25 32 -70v-40
q0 -47 -33 -80.5t-80 -33.5h-30q-47 0 -80 36t-33 87h75q0 -20 11 -34t27 -14h30q15 0 26.5 11.5t11.5 27.5zM457 92v68l200 277h71v-271h34v-74h-34v-92h-74v92h-197zM551 166h103v138z" />
    <glyph glyph-name="questiondown" unicode="&#xbf;" horiz-adv-x="456" 
d="M162 651h112v-89h-112v89zM263 101v81h112v-110q0 -58 -50.5 -98.5t-117.5 -40.5h-101q-56 0 -97 40.5t-41 98.5v123q0 65 44.5 116.5t110.5 51.5q19 0 29.5 16t10.5 40v96h111v-96q0 -67 -38.5 -117t-102.5 -50q-23 0 -38.5 -16.5t-15.5 -40.5v-94q0 -24 16 -40t40 -16
h72q23 0 39.5 16t16.5 40z" />
    <glyph glyph-name="Agrave" unicode="&#xc0;" horiz-adv-x="533" 
d="M230 753l-70 119h107l30 -119h-67zM201 157l-35 -157h-135l181 700h119l177 -700h-133l-35 157h-139zM272 488l-51 -201h99z" />
    <glyph glyph-name="Aacute" unicode="&#xc1;" horiz-adv-x="533" 
d="M370 872l-70 -119h-67l30 119h107zM201 157l-35 -157h-135l181 700h119l177 -700h-133l-35 157h-139zM272 488l-51 -201h99z" />
    <glyph glyph-name="Acircumflex" unicode="&#xc2;" horiz-adv-x="533" 
d="M314 753l-40 61l-39 -61h-67l78 120h57l78 -120h-67zM201 157l-35 -157h-135l181 700h119l177 -700h-133l-35 157h-139zM272 488l-51 -201h99z" />
    <glyph glyph-name="Atilde" unicode="&#xc3;" horiz-adv-x="533" 
d="M358 830l32 -49q-42 -34 -75 -34q-16 0 -46.5 13.5t-37.5 13.5q-19 0 -39 -20l-40 43q44 37 79 37q16 0 46.5 -13t38.5 -13q14 0 42 22zM201 157l-35 -157h-135l181 700h119l177 -700h-133l-35 157h-139zM272 488l-51 -201h99z" />
    <glyph glyph-name="Adieresis" unicode="&#xc4;" horiz-adv-x="528" 
d="M250 754h-87v89h87v-89zM379 754h-87v89h87v-89zM198 157l-35 -157h-135l181 700h119l177 -700h-133l-35 157h-139zM269 488l-51 -201h99z" />
    <glyph glyph-name="Aring" unicode="&#xc5;" horiz-adv-x="528" 
d="M183 828q0 36 25 61.5t61 25.5q35 0 61 -26t26 -61q0 -36 -25.5 -61t-61.5 -25t-61 25t-25 61zM236 828q0 -14 10 -23.5t23 -9.5q14 0 24 10t10 23q0 14 -10.5 24t-23.5 10t-23 -10t-10 -24zM198 157l-35 -157h-135l181 700h119l177 -700h-133l-35 157h-139zM269 488
l-51 -201h99z" />
    <glyph glyph-name="Ccedilla" unicode="&#xc7;" horiz-adv-x="495" 
d="M321 482v53q0 14 -11 24.5t-26 10.5h-80q-14 0 -25 -10.5t-11 -24.5v-369q0 -14 11 -25t25 -11h80q15 0 26 11t11 25v61h130v-79q0 -62 -43.5 -105t-104.5 -43h-45l-5 -26q23 0 36.5 -16t13.5 -40q0 -29 -21.5 -52.5t-54.5 -23.5h-43l6 46h23q18 0 22 16q5 24 -13 24h-24
l13 72h-26q-60 0 -103.5 42.5t-43.5 105.5v405q0 62 42.5 104.5t104.5 42.5h118q62 0 105 -43t43 -104v-71h-130z" />
    <glyph glyph-name="Egrave" unicode="&#xc8;" horiz-adv-x="462" 
d="M230 753l-70 119h107l30 -119h-67zM186 312v-182h244v-130h-374v700h374v-130h-244v-128h244v-130h-244z" />
    <glyph glyph-name="Eacute" unicode="&#xc9;" horiz-adv-x="462" 
d="M218 753l-70 119h107l30 -119h-67zM186 312v-182h244v-130h-374v700h374v-130h-244v-128h244v-130h-244z" />
    <glyph glyph-name="Ecircumflex" unicode="&#xca;" horiz-adv-x="462" 
d="M280 753l-40 61l-39 -61h-67l78 120h57l78 -120h-67zM186 312v-182h244v-130h-374v700h374v-130h-244v-128h244v-130h-244z" />
    <glyph glyph-name="Edieresis" unicode="&#xcb;" horiz-adv-x="462" 
d="M217 754h-87v89h87v-89zM346 754h-87v89h87v-89zM186 312v-182h244v-130h-374v700h374v-130h-244v-128h244v-130h-244z" />
    <glyph glyph-name="Igrave" unicode="&#xcc;" horiz-adv-x="260" 
d="M99 753l-70 119h107l30 -119h-67zM72 700h129v-700h-129v700z" />
    <glyph glyph-name="Iacute" unicode="&#xcd;" horiz-adv-x="257" 
d="M219 872l-70 -119h-67l30 119h107zM59 700h129v-700h-129v700z" />
    <glyph glyph-name="Icircumflex" unicode="&#xce;" horiz-adv-x="273" 
d="M179 753l-40 61l-39 -61h-67l78 120h57l78 -120h-67zM71 700h129v-700h-129v700z" />
    <glyph glyph-name="Idieresis" unicode="&#xcf;" horiz-adv-x="274" 
d="M117 754h-87v89h87v-89zM246 754h-87v89h87v-89zM72 700h129v-700h-129v700z" />
    <glyph glyph-name="Eth" unicode="&#xd0;" horiz-adv-x="565" 
d="M83 700h287q59 0 99.5 -49.5t40.5 -118.5v-372q0 -67 -41 -113.5t-99 -46.5h-287v298h-57v98h57v304zM382 166v368q0 16 -12 26t-30 10h-129v-174h89v-98h-89v-168h129q18 0 30 10t12 26z" />
    <glyph glyph-name="Ntilde" unicode="&#xd1;" horiz-adv-x="544" 
d="M342 830l32 -49q-42 -34 -75 -34q-16 0 -46.5 13.5t-37.5 13.5q-19 0 -39 -20l-40 43q44 37 79 37q16 0 46.5 -13t38.5 -13q14 0 42 22zM488 0h-116l-186 405v-405h-130v700h125l177 -380v380h130v-700z" />
    <glyph glyph-name="Ograve" unicode="&#xd2;" horiz-adv-x="501" 
d="M205 753l-70 119h107l30 -119h-67zM187 700h127q60 0 103.5 -46.5t43.5 -110.5v-386q0 -64 -43.5 -110.5t-103.5 -46.5h-127q-62 0 -105 46.5t-43 110.5v386q0 64 43 110.5t105 46.5zM286 570h-71q-19 0 -32.5 -13.5t-13.5 -31.5v-350q0 -18 13.5 -31.5t32.5 -13.5h71
q18 0 31.5 13.5t13.5 31.5v350q0 18 -13.5 31.5t-31.5 13.5z" />
    <glyph glyph-name="Oacute" unicode="&#xd3;" horiz-adv-x="501" 
d="M347 872l-70 -119h-67l30 119h107zM187 700h127q60 0 103.5 -46.5t43.5 -110.5v-386q0 -64 -43.5 -110.5t-103.5 -46.5h-127q-62 0 -105 46.5t-43 110.5v386q0 64 43 110.5t105 46.5zM286 570h-71q-19 0 -32.5 -13.5t-13.5 -31.5v-350q0 -18 13.5 -31.5t32.5 -13.5h71
q18 0 31.5 13.5t13.5 31.5v350q0 18 -13.5 31.5t-31.5 13.5z" />
    <glyph glyph-name="Ocircumflex" unicode="&#xd4;" horiz-adv-x="501" 
d="M291 753l-40 61l-39 -61h-67l78 120h57l78 -120h-67zM187 700h127q60 0 103.5 -46.5t43.5 -110.5v-386q0 -64 -43.5 -110.5t-103.5 -46.5h-127q-62 0 -105 46.5t-43 110.5v386q0 64 43 110.5t105 46.5zM286 570h-71q-19 0 -32.5 -13.5t-13.5 -31.5v-350q0 -18 13.5 -31.5
t32.5 -13.5h71q18 0 31.5 13.5t13.5 31.5v350q0 18 -13.5 31.5t-31.5 13.5z" />
    <glyph glyph-name="Otilde" unicode="&#xd5;" horiz-adv-x="501" 
d="M339 830l32 -49q-42 -34 -75 -34q-16 0 -46.5 13.5t-37.5 13.5q-19 0 -39 -20l-40 43q44 37 79 37q16 0 46.5 -13t38.5 -13q14 0 42 22zM187 700h127q60 0 103.5 -46.5t43.5 -110.5v-386q0 -64 -43.5 -110.5t-103.5 -46.5h-127q-62 0 -105 46.5t-43 110.5v386
q0 64 43 110.5t105 46.5zM286 570h-71q-19 0 -32.5 -13.5t-13.5 -31.5v-350q0 -18 13.5 -31.5t32.5 -13.5h71q18 0 31.5 13.5t13.5 31.5v350q0 18 -13.5 31.5t-31.5 13.5z" />
    <glyph glyph-name="Odieresis" unicode="&#xd6;" horiz-adv-x="501" 
d="M220 754h-87v89h87v-89zM349 754h-87v89h87v-89zM187 700h127q60 0 103.5 -46.5t43.5 -110.5v-386q0 -64 -43.5 -110.5t-103.5 -46.5h-127q-62 0 -105 46.5t-43 110.5v386q0 64 43 110.5t105 46.5zM286 570h-71q-19 0 -32.5 -13.5t-13.5 -31.5v-350q0 -18 13.5 -31.5
t32.5 -13.5h71q18 0 31.5 13.5t13.5 31.5v350q0 18 -13.5 31.5t-31.5 13.5z" />
    <glyph glyph-name="multiply" unicode="&#xd7;" horiz-adv-x="391" 
d="M276 374l70 -69l-82 -82l82 -83l-69 -69l-83 82l-82 -82l-69 70l82 82l-81 81l69 69l81 -81z" />
    <glyph glyph-name="Oslash" unicode="&#xd8;" horiz-adv-x="501" 
d="M187 700h127q35 0 64 -17l25 54h38l-34 -74q54 -48 54 -120v-386q0 -63 -43.5 -110t-103.5 -47h-127q-42 0 -77 22l-27 -58h-38l37 81q-43 46 -43 112v386q0 64 43.5 110.5t104.5 46.5zM286 570h-71q-19 0 -32.5 -13.5t-13.5 -31.5v-293l150 323q-15 15 -33 15zM215 130
h71q16 0 26 6.5t13.5 20.5t4.5 24t1 28v6v243v41l-159 -342q12 -27 43 -27z" />
    <glyph glyph-name="Ugrave" unicode="&#xd9;" horiz-adv-x="505" 
d="M215 753l-70 119h107l30 -119h-67zM321 165v535h130v-553q0 -62 -43.5 -104.5t-103.5 -42.5h-100q-63 0 -110 43t-47 104v553h131v-535q0 -14 10.5 -24.5t25.5 -10.5h71q14 0 25 10.5t11 24.5z" />
    <glyph glyph-name="Uacute" unicode="&#xda;" horiz-adv-x="505" 
d="M353 872l-70 -119h-67l30 119h107zM451 700v-553q0 -62 -43.5 -104.5t-103.5 -42.5h-100q-63 0 -110 43t-47 104v553h131v-535q0 -14 10.5 -24.5t25.5 -10.5h71q14 0 25 10.5t11 24.5v535h130z" />
    <glyph glyph-name="Ucircumflex" unicode="&#xdb;" horiz-adv-x="505" 
d="M283 753l-40 61l-39 -61h-67l78 120h57l78 -120h-67zM321 165v535h130v-553q0 -62 -43.5 -104.5t-103.5 -42.5h-100q-63 0 -110 43t-47 104v553h131v-535q0 -14 10.5 -24.5t25.5 -10.5h71q14 0 25 10.5t11 24.5z" />
    <glyph glyph-name="Udieresis" unicode="&#xdc;" horiz-adv-x="505" 
d="M236 754h-87v89h87v-89zM365 754h-87v89h87v-89zM321 165v535h130v-553q0 -62 -43.5 -104.5t-103.5 -42.5h-100q-63 0 -110 43t-47 104v553h131v-535q0 -14 10.5 -24.5t25.5 -10.5h71q14 0 25 10.5t11 24.5z" />
    <glyph glyph-name="Yacute" unicode="&#xdd;" horiz-adv-x="519" 
d="M361 872l-70 -119h-67l30 119h107zM187 337l-162 363h136l91 -215l103 215h139l-177 -363v-337h-130v337z" />
    <glyph glyph-name="Thorn" unicode="&#xde;" horiz-adv-x="495" 
d="M181 700v-72h125q57 0 99.5 -42.5t42.5 -98.5v-135q0 -59 -41 -100.5t-101 -41.5h-125v-210h-134v700h134zM181 334h95q20 0 34 14t14 33v67q0 19 -14 32.5t-34 13.5h-95v-160z" />
    <glyph glyph-name="germandbls" unicode="&#xdf;" horiz-adv-x="538" 
d="M244 439h62q7 0 12 8t5 20v85q0 15 -9.5 26t-24.5 11h-67q-11 0 -21 -11.5t-10 -25.5v-638h-132v648q0 57 46.5 97.5t113.5 40.5h87q61 0 105 -41t44 -97v-95q0 -35 -34 -63q30 -14 48 -39t18 -55v-171q0 -57 -44 -98t-104 -41h-96v112h86q10 0 18 5t8 12v171q0 7 -5 12
t-12 5h-94v122z" />
    <glyph glyph-name="agrave" unicode="&#xe0;" horiz-adv-x="471" 
d="M182 490l-70 119h107l30 -119h-67zM175 437h44q40 0 75 -45v45h131v-437h-131v38q-34 -44 -75 -44h-44q-58 0 -98.5 41t-40.5 98v165q0 57 40.5 98t98.5 41zM248 335h-45q-19 0 -32.5 -13.5t-13.5 -32.5v-147q0 -18 13.5 -31.5t32.5 -13.5h45q19 0 32.5 13.5t13.5 31.5
v147q0 19 -13.5 32.5t-32.5 13.5z" />
    <glyph glyph-name="aacute" unicode="&#xe1;" horiz-adv-x="471" 
d="M306 609l-70 -119h-67l30 119h107zM175 437h44q40 0 75 -45v45h131v-437h-131v38q-34 -44 -75 -44h-44q-58 0 -98.5 41t-40.5 98v165q0 57 40.5 98t98.5 41zM248 335h-45q-19 0 -32.5 -13.5t-13.5 -32.5v-147q0 -18 13.5 -31.5t32.5 -13.5h45q19 0 32.5 13.5t13.5 31.5
v147q0 19 -13.5 32.5t-32.5 13.5z" />
    <glyph glyph-name="acircumflex" unicode="&#xe2;" horiz-adv-x="471" 
d="M277 490l-40 61l-39 -61h-67l78 120h57l78 -120h-67zM175 437h44q40 0 75 -45v45h131v-437h-131v38q-34 -44 -75 -44h-44q-58 0 -98.5 41t-40.5 98v165q0 57 40.5 98t98.5 41zM248 335h-45q-19 0 -32.5 -13.5t-13.5 -32.5v-147q0 -18 13.5 -31.5t32.5 -13.5h45
q19 0 32.5 13.5t13.5 31.5v147q0 19 -13.5 32.5t-32.5 13.5z" />
    <glyph glyph-name="atilde" unicode="&#xe3;" horiz-adv-x="471" 
d="M324 575l32 -49q-42 -34 -75 -34q-16 0 -46.5 13.5t-37.5 13.5q-19 0 -39 -20l-40 43q44 37 79 37q16 0 46.5 -13t38.5 -13q14 0 42 22zM175 437h44q40 0 75 -45v45h131v-437h-131v38q-34 -44 -75 -44h-44q-58 0 -98.5 41t-40.5 98v165q0 57 40.5 98t98.5 41zM248 335
h-45q-19 0 -32.5 -13.5t-13.5 -32.5v-147q0 -18 13.5 -31.5t32.5 -13.5h45q19 0 32.5 13.5t13.5 31.5v147q0 19 -13.5 32.5t-32.5 13.5z" />
    <glyph glyph-name="adieresis" unicode="&#xe4;" horiz-adv-x="471" 
d="M216 490h-87v89h87v-89zM345 490h-87v89h87v-89zM175 437h44q40 0 75 -45v45h131v-437h-131v38q-34 -44 -75 -44h-44q-58 0 -98.5 41t-40.5 98v165q0 57 40.5 98t98.5 41zM248 335h-45q-19 0 -32.5 -13.5t-13.5 -32.5v-147q0 -18 13.5 -31.5t32.5 -13.5h45
q19 0 32.5 13.5t13.5 31.5v147q0 19 -13.5 32.5t-32.5 13.5z" />
    <glyph glyph-name="aring" unicode="&#xe5;" horiz-adv-x="471" 
d="M151 566q0 36 25 61.5t61 25.5q35 0 61 -26t26 -61q0 -36 -25.5 -61t-61.5 -25t-61 25t-25 61zM204 566q0 -14 10 -23.5t23 -9.5q14 0 24 10t10 23q0 14 -10.5 24t-23.5 10t-23 -10t-10 -24zM175 437h44q40 0 75 -45v45h131v-437h-131v38q-34 -44 -75 -44h-44
q-58 0 -98.5 41t-40.5 98v165q0 57 40.5 98t98.5 41zM248 335h-45q-19 0 -32.5 -13.5t-13.5 -32.5v-147q0 -18 13.5 -31.5t32.5 -13.5h45q19 0 32.5 13.5t13.5 31.5v147q0 19 -13.5 32.5t-32.5 13.5z" />
    <glyph glyph-name="ccedilla" unicode="&#xe7;" horiz-adv-x="415" 
d="M262 292v16q0 11 -8 19t-18 8h-55q-11 0 -19 -8.5t-8 -18.5v-185q0 -10 8 -18t19 -8h55q10 0 18 7.5t8 18.5v16h122v-6q0 -57 -41 -98t-98 -41h-16l-4 -20q23 0 36.5 -16t13.5 -40q0 -29 -21.5 -52.5t-54.5 -23.5h-43l6 46h23q18 0 22 16q5 24 -13 24h-24l12 66h-10
q-60 0 -99.5 42t-39.5 103v159q0 57 40.5 98t98.5 41h73q57 0 98 -41t41 -98v-6h-122z" />
    <glyph glyph-name="egrave" unicode="&#xe8;" 
d="M178 490l-70 119h107l30 -119h-67zM261 123v26h122v-16q0 -57 -41 -98t-98 -41h-72q-59 0 -99.5 41t-40.5 98v165q0 57 40.5 98t99.5 41h72q57 0 98 -41t41 -98v-114h-230v-61q0 -10 8.5 -18t19.5 -8h54q11 0 18.5 7.5t7.5 18.5zM153 308v-49h118v49q0 11 -8 19t-18 8
h-64q-11 0 -19.5 -8t-8.5 -19z" />
    <glyph glyph-name="eacute" unicode="&#xe9;" 
d="M311 609l-70 -119h-67l30 119h107zM383 149v-16q0 -57 -41 -98t-98 -41h-72q-59 0 -99.5 41t-40.5 98v165q0 57 40.5 98t99.5 41h72q57 0 98 -41t41 -98v-114h-230v-61q0 -10 8.5 -18t19.5 -8h54q11 0 18.5 7.5t7.5 18.5v26h122zM271 259v49q0 11 -8 19t-18 8h-64
q-11 0 -19.5 -8t-8.5 -19v-49h118z" />
    <glyph glyph-name="ecircumflex" unicode="&#xea;" 
d="M246 490l-40 61l-39 -61h-67l78 120h57l78 -120h-67zM261 123v26h122v-16q0 -57 -41 -98t-98 -41h-72q-59 0 -99.5 41t-40.5 98v165q0 57 40.5 98t99.5 41h72q57 0 98 -41t41 -98v-114h-230v-61q0 -10 8.5 -18t19.5 -8h54q11 0 18.5 7.5t7.5 18.5zM153 308v-49h118v49
q0 11 -8 19t-18 8h-64q-11 0 -19.5 -8t-8.5 -19z" />
    <glyph glyph-name="edieresis" unicode="&#xeb;" 
d="M185 490h-87v89h87v-89zM314 490h-87v89h87v-89zM261 123v26h122v-16q0 -57 -41 -98t-98 -41h-72q-59 0 -99.5 41t-40.5 98v165q0 57 40.5 98t99.5 41h72q57 0 98 -41t41 -98v-114h-230v-61q0 -10 8.5 -18t19.5 -8h54q11 0 18.5 7.5t7.5 18.5zM153 308v-49h118v49
q0 11 -8 19t-18 8h-64q-11 0 -19.5 -8t-8.5 -19z" />
    <glyph glyph-name="igrave" unicode="&#xec;" horiz-adv-x="231" 
d="M99 490l-70 119h107l30 -119h-67zM185 437v-437h-131v437h131z" />
    <glyph glyph-name="iacute" unicode="&#xed;" horiz-adv-x="234" 
d="M212 609l-70 -119h-67l30 119h107zM178 437v-437h-131v437h131z" />
    <glyph glyph-name="icircumflex" unicode="&#xee;" horiz-adv-x="248" 
d="M164 490l-40 61l-39 -61h-67l78 120h57l78 -120h-67zM190 437v-437h-131v437h131z" />
    <glyph glyph-name="idieresis" unicode="&#xef;" horiz-adv-x="250" 
d="M104 490h-87v89h87v-89zM233 490h-87v89h87v-89zM191 437v-437h-131v437h131z" />
    <glyph glyph-name="eth" unicode="&#xf0;" horiz-adv-x="486" 
d="M294 540v31q0 12 -8.5 20t-19.5 8h-68v101h116q43 0 77 -29.5t34 -70.5v-60h44v-58h-44v-482h-131v38q-34 -44 -75 -44h-44q-58 0 -98.5 41t-40.5 98v165q0 57 40.5 98t98.5 41h44q40 0 75 -45v90h-59v58h59zM248 335h-45q-19 0 -32.5 -13.5t-13.5 -32.5v-147
q0 -18 13.5 -31.5t32.5 -13.5h45q19 0 32.5 13.5t13.5 31.5v147q0 19 -13.5 32.5t-32.5 13.5z" />
    <glyph glyph-name="ntilde" unicode="&#xf1;" horiz-adv-x="468" 
d="M318 575l32 -49q-42 -34 -75 -34q-16 0 -46.5 13.5t-37.5 13.5q-19 0 -39 -20l-40 43q44 37 79 37q16 0 46.5 -13t38.5 -13q14 0 42 22zM176 437v-45q34 45 76 45h15q64 0 110.5 -40.5t46.5 -98.5v-298h-131v289q0 19 -13.5 32.5t-32.5 13.5h-24q-19 0 -33 -13.5
t-14 -32.5v-289h-131v437h131z" />
    <glyph glyph-name="ograve" unicode="&#xf2;" 
d="M177 490l-70 119h107l30 -119h-67zM171 437h72q57 0 98.5 -40.5t41.5 -98.5v-165q0 -58 -41.5 -98.5t-98.5 -40.5h-72q-57 0 -98.5 40.5t-41.5 98.5v165q0 58 41.5 98.5t98.5 40.5zM234 335h-54q-10 0 -18.5 -8.5t-8.5 -18.5v-185q0 -10 8 -18t19 -8h54q11 0 19 8t8 18
v185q0 10 -8.5 18.5t-18.5 8.5z" />
    <glyph glyph-name="oacute" unicode="&#xf3;" 
d="M306 609l-70 -119h-67l30 119h107zM171 437h72q57 0 98.5 -40.5t41.5 -98.5v-165q0 -58 -41.5 -98.5t-98.5 -40.5h-72q-57 0 -98.5 40.5t-41.5 98.5v165q0 58 41.5 98.5t98.5 40.5zM234 335h-54q-10 0 -18.5 -8.5t-8.5 -18.5v-185q0 -10 8 -18t19 -8h54q11 0 19 8t8 18
v185q0 10 -8.5 18.5t-18.5 8.5z" />
    <glyph glyph-name="ocircumflex" unicode="&#xf4;" 
d="M246 490l-40 61l-39 -61h-67l78 120h57l78 -120h-67zM171 437h72q57 0 98.5 -40.5t41.5 -98.5v-165q0 -58 -41.5 -98.5t-98.5 -40.5h-72q-57 0 -98.5 40.5t-41.5 98.5v165q0 58 41.5 98.5t98.5 40.5zM234 335h-54q-10 0 -18.5 -8.5t-8.5 -18.5v-185q0 -10 8 -18t19 -8h54
q11 0 19 8t8 18v185q0 10 -8.5 18.5t-18.5 8.5z" />
    <glyph glyph-name="otilde" unicode="&#xf5;" 
d="M294 575l32 -49q-42 -34 -75 -34q-16 0 -46.5 13.5t-37.5 13.5q-19 0 -39 -20l-40 43q44 37 79 37q16 0 46.5 -13t38.5 -13q14 0 42 22zM171 437h72q57 0 98.5 -40.5t41.5 -98.5v-165q0 -58 -41.5 -98.5t-98.5 -40.5h-72q-57 0 -98.5 40.5t-41.5 98.5v165q0 58 41.5 98.5
t98.5 40.5zM234 335h-54q-10 0 -18.5 -8.5t-8.5 -18.5v-185q0 -10 8 -18t19 -8h54q11 0 19 8t8 18v185q0 10 -8.5 18.5t-18.5 8.5z" />
    <glyph glyph-name="odieresis" unicode="&#xf6;" 
d="M186 490h-87v89h87v-89zM315 490h-87v89h87v-89zM171 437h72q57 0 98.5 -40.5t41.5 -98.5v-165q0 -58 -41.5 -98.5t-98.5 -40.5h-72q-57 0 -98.5 40.5t-41.5 98.5v165q0 58 41.5 98.5t98.5 40.5zM234 335h-54q-10 0 -18.5 -8.5t-8.5 -18.5v-185q0 -10 8 -18t19 -8h54
q11 0 19 8t8 18v185q0 10 -8.5 18.5t-18.5 8.5z" />
    <glyph glyph-name="divide" unicode="&#xf7;" horiz-adv-x="399" 
d="M250 299h-97v89h97v-89zM364 174h-330v98h330v-98zM250 52h-97v89h97v-89z" />
    <glyph glyph-name="oslash" unicode="&#xf8;" 
d="M171 437h72q30 0 62 -15l26 47h38l-36 -65q50 -43 50 -106v-165q0 -58 -41.5 -98.5t-98.5 -40.5h-72q-27 0 -58 12l-23 -42h-38l33 59q-54 41 -54 110v165q0 58 41.5 98.5t98.5 40.5zM234 335h-54q-27 0 -27 -47v-102v-40l99 181q-8 8 -18 8zM180 97h36q18 0 25.5 1.5
t13.5 12t6 33.5v86v43l-95 -172q5 -4 14 -4z" />
    <glyph glyph-name="ugrave" unicode="&#xf9;" horiz-adv-x="469" 
d="M208 490l-70 119h107l30 -119h-67zM293 148v289h131v-437h-131v45q-34 -45 -76 -45h-14q-65 0 -111.5 40t-46.5 99v298h131v-289q0 -19 13.5 -32.5t32.5 -13.5h25q19 0 32.5 13.5t13.5 32.5z" />
    <glyph glyph-name="uacute" unicode="&#xfa;" horiz-adv-x="469" 
d="M327 609l-70 -119h-67l30 119h107zM293 0v45q-34 -45 -76 -45h-14q-65 0 -111.5 40t-46.5 99v298h131v-289q0 -19 13.5 -32.5t32.5 -13.5h25q19 0 32.5 13.5t13.5 32.5v289h131v-437h-131z" />
    <glyph glyph-name="ucircumflex" unicode="&#xfb;" horiz-adv-x="469" 
d="M274 490l-40 61l-39 -61h-67l78 120h57l78 -120h-67zM293 148v289h131v-437h-131v45q-34 -45 -76 -45h-14q-65 0 -111.5 40t-46.5 99v298h131v-289q0 -19 13.5 -32.5t32.5 -13.5h25q19 0 32.5 13.5t13.5 32.5z" />
    <glyph glyph-name="udieresis" unicode="&#xfc;" horiz-adv-x="469" 
d="M214 490h-87v89h87v-89zM343 490h-87v89h87v-89zM293 148v289h131v-437h-131v45q-34 -45 -76 -45h-14q-65 0 -111.5 40t-46.5 99v298h131v-289q0 -19 13.5 -32.5t32.5 -13.5h25q19 0 32.5 13.5t13.5 32.5z" />
    <glyph glyph-name="yacute" unicode="&#xfd;" horiz-adv-x="478" 
d="M336 609l-70 -119h-67l30 119h107zM244 169l83 268h123l-219 -688h-133l82 259l-152 429h122z" />
    <glyph glyph-name="thorn" unicode="&#xfe;" horiz-adv-x="472" 
d="M47 700h131v-299q29 36 65 36h53q58 0 99 -41t41 -98v-165q0 -57 -41 -98t-99 -41h-53q-36 0 -65 35v-263h-131v934zM178 289v-147q0 -18 13.5 -31.5t32.5 -13.5h44q19 0 32.5 13.5t13.5 31.5v147q0 19 -14 32.5t-32 13.5h-44q-19 0 -32.5 -13.5t-13.5 -32.5z" />
    <glyph glyph-name="ydieresis" unicode="&#xff;" horiz-adv-x="478" 
d="M219 490h-87v89h87v-89zM348 490h-87v89h87v-89zM98 -251l82 259l-152 429h122l94 -268l83 268h123l-219 -688h-133z" />
    <glyph glyph-name="Amacron" unicode="&#x100;" horiz-adv-x="528" 
d="M168 830h204v-77h-204v77zM198 157l-35 -157h-135l181 700h119l177 -700h-133l-35 157h-139zM269 488l-51 -201h99z" />
    <glyph glyph-name="amacron" unicode="&#x101;" horiz-adv-x="471" 
d="M135 567h204v-77h-204v77zM175 437h44q40 0 75 -45v45h131v-437h-131v38q-34 -44 -75 -44h-44q-58 0 -98.5 41t-40.5 98v165q0 57 40.5 98t98.5 41zM248 335h-45q-19 0 -32.5 -13.5t-13.5 -32.5v-147q0 -18 13.5 -31.5t32.5 -13.5h45q19 0 32.5 13.5t13.5 31.5v147
q0 19 -13.5 32.5t-32.5 13.5z" />
    <glyph glyph-name="Abreve" unicode="&#x102;" horiz-adv-x="528" 
d="M223 841v-8q0 -12 11.5 -20.5t26.5 -8.5q16 0 28 8.5t12 20.5v8h62v-8q0 -38 -30 -64t-72 -26q-43 0 -71.5 26t-28.5 64v8h62zM198 157l-35 -157h-135l181 700h119l177 -700h-133l-35 157h-139zM269 488l-51 -201h99z" />
    <glyph glyph-name="abreve" unicode="&#x103;" horiz-adv-x="471" 
d="M198 578v-8q0 -12 11.5 -20.5t26.5 -8.5q16 0 28 8.5t12 20.5v8h62v-8q0 -38 -30 -64t-72 -26q-43 0 -71.5 26t-28.5 64v8h62zM175 437h44q40 0 75 -45v45h131v-437h-131v38q-34 -44 -75 -44h-44q-58 0 -98.5 41t-40.5 98v165q0 57 40.5 98t98.5 41zM248 335h-45
q-19 0 -32.5 -13.5t-13.5 -32.5v-147q0 -18 13.5 -31.5t32.5 -13.5h45q19 0 32.5 13.5t13.5 31.5v147q0 19 -13.5 32.5t-32.5 13.5z" />
    <glyph glyph-name="Aogonek" unicode="&#x104;" horiz-adv-x="528" 
d="M198 157l-35 -157h-135l181 700h119l177 -700h-133l-35 157h-139zM269 488l-51 -201h99zM430 -12h75q-37 -31 -46 -45t-7 -35q1 -7 8 -12t14 -5h13l16 -56h-53q-37 0 -61.5 23.5t-24.5 52.5q0 48 66 77z" />
    <glyph glyph-name="aogonek" unicode="&#x105;" horiz-adv-x="471" 
d="M175 437h44q40 0 75 -45v45h131v-437h-131v38q-34 -44 -75 -44h-44q-58 0 -98.5 41t-40.5 98v165q0 57 40.5 98t98.5 41zM248 335h-45q-19 0 -32.5 -13.5t-13.5 -32.5v-147q0 -18 13.5 -31.5t32.5 -13.5h45q19 0 32.5 13.5t13.5 31.5v147q0 19 -13.5 32.5t-32.5 13.5z
M350 -12h75q-37 -31 -46 -45t-7 -35q1 -7 8 -12t14 -5h13l16 -56h-53q-37 0 -61.5 23.5t-24.5 52.5q0 48 66 77z" />
    <glyph glyph-name="Cacute" unicode="&#x106;" horiz-adv-x="490" 
d="M339 872l-70 -119h-67l30 119h107zM453 227v-79q0 -62 -43.5 -105t-104.5 -43h-118q-60 0 -103.5 42.5t-43.5 105.5v405q0 62 42.5 104.5t104.5 42.5h118q62 0 105 -43t43 -104v-71h-130v53q0 14 -11 24.5t-26 10.5h-80q-14 0 -25 -10.5t-11 -24.5v-369q0 -14 11 -25
t25 -11h80q15 0 26 11t11 25v61h130z" />
    <glyph glyph-name="cacute" unicode="&#x107;" horiz-adv-x="415" 
d="M299 609l-70 -119h-67l30 119h107zM384 139v-6q0 -57 -41 -98t-98 -41h-73q-60 0 -99.5 42t-39.5 103v159q0 57 40.5 98t98.5 41h73q57 0 98 -41t41 -98v-6h-122v16q0 11 -8 19t-18 8h-55q-11 0 -19 -8.5t-8 -18.5v-185q0 -10 8 -18t19 -8h55q10 0 18 7.5t8 18.5v16h122z
" />
    <glyph glyph-name="Ccircumflex" unicode="&#x108;" horiz-adv-x="490" 
d="M284 753l-40 61l-39 -61h-67l78 120h57l78 -120h-67zM323 166v61h130v-79q0 -62 -43.5 -105t-104.5 -43h-118q-60 0 -103.5 42.5t-43.5 105.5v405q0 62 42.5 104.5t104.5 42.5h118q62 0 105 -43t43 -104v-71h-130v53q0 14 -11 24.5t-26 10.5h-80q-14 0 -25 -10.5
t-11 -24.5v-369q0 -14 11 -25t25 -11h80q15 0 26 11t11 25z" />
    <glyph glyph-name="ccircumflex" unicode="&#x109;" horiz-adv-x="415" 
d="M247 490l-40 61l-39 -61h-67l78 120h57l78 -120h-67zM262 123v16h122v-6q0 -57 -41 -98t-98 -41h-73q-60 0 -99.5 42t-39.5 103v159q0 57 40.5 98t98.5 41h73q57 0 98 -41t41 -98v-6h-122v16q0 11 -8 19t-18 8h-55q-11 0 -19 -8.5t-8 -18.5v-185q0 -10 8 -18t19 -8h55
q10 0 18 7.5t8 18.5z" />
    <glyph glyph-name="Cdotaccent" unicode="&#x10a;" horiz-adv-x="490" 
d="M293 753h-97v89h97v-89zM323 166v61h130v-79q0 -62 -43.5 -105t-104.5 -43h-118q-60 0 -103.5 42.5t-43.5 105.5v405q0 62 42.5 104.5t104.5 42.5h118q62 0 105 -43t43 -104v-71h-130v53q0 14 -11 24.5t-26 10.5h-80q-14 0 -25 -10.5t-11 -24.5v-369q0 -14 11 -25t25 -11
h80q15 0 26 11t11 25z" />
    <glyph glyph-name="cdotaccent" unicode="&#x10b;" horiz-adv-x="415" 
d="M256 490h-97v89h97v-89zM262 123v16h122v-6q0 -57 -41 -98t-98 -41h-73q-60 0 -99.5 42t-39.5 103v159q0 57 40.5 98t98.5 41h73q57 0 98 -41t41 -98v-6h-122v16q0 11 -8 19t-18 8h-55q-11 0 -19 -8.5t-8 -18.5v-185q0 -10 8 -18t19 -8h55q10 0 18 7.5t8 18.5z" />
    <glyph glyph-name="Ccaron" unicode="&#x10c;" horiz-adv-x="490" 
d="M216 753l-78 120h67l39 -61l40 61h67l-78 -120h-57zM453 227v-79q0 -62 -43.5 -105t-104.5 -43h-118q-60 0 -103.5 42.5t-43.5 105.5v405q0 62 42.5 104.5t104.5 42.5h118q62 0 105 -43t43 -104v-71h-130v53q0 14 -11 24.5t-26 10.5h-80q-14 0 -25 -10.5t-11 -24.5v-369
q0 -14 11 -25t25 -11h80q15 0 26 11t11 25v61h130z" />
    <glyph glyph-name="ccaron" unicode="&#x10d;" horiz-adv-x="415" 
d="M179 490l-78 120h67l39 -61l40 61h67l-78 -120h-57zM384 139v-6q0 -57 -41 -98t-98 -41h-73q-60 0 -99.5 42t-39.5 103v159q0 57 40.5 98t98.5 41h73q57 0 98 -41t41 -98v-6h-122v16q0 11 -8 19t-18 8h-55q-11 0 -19 -8.5t-8 -18.5v-185q0 -10 8 -18t19 -8h55
q10 0 18 7.5t8 18.5v16h122z" />
    <glyph glyph-name="Dcaron" unicode="&#x10e;" horiz-adv-x="527" 
d="M209 753l-78 120h67l39 -61l40 61h67l-78 -120h-57zM56 700h283q63 0 105.5 -49t42.5 -116v-369q0 -47 -20 -84q-19 -38 -53 -60t-75 -22h-283v700zM186 130h135q15 0 26 11t11 25v369q0 14 -11 24.5t-26 10.5h-135v-440z" />
    <glyph glyph-name="dcaron" unicode="&#x10f;" horiz-adv-x="618" 
d="M175 437h44q40 0 75 -45v308h131v-700h-131v38q-34 -44 -75 -44h-44q-58 0 -98.5 41t-40.5 98v165q0 57 40.5 98t98.5 41zM474 700h97v-89l-37 -51h-43l32 51h-49v89zM248 335h-45q-19 0 -32.5 -13.5t-13.5 -32.5v-147q0 -18 13.5 -31.5t32.5 -13.5h45q19 0 32.5 13.5
t13.5 31.5v147q0 19 -13.5 32.5t-32.5 13.5z" />
    <glyph glyph-name="Dcroat" unicode="&#x110;" horiz-adv-x="565" 
d="M83 700h287q59 0 99.5 -49.5t40.5 -118.5v-372q0 -67 -41 -113.5t-99 -46.5h-287v298h-57v98h57v304zM382 166v368q0 16 -12 26t-30 10h-129v-174h89v-98h-89v-168h129q18 0 30 10t12 26z" />
    <glyph glyph-name="dcroat" unicode="&#x111;" horiz-adv-x="486" 
d="M294 700h131v-116h54v-58h-54v-526h-131v38q-34 -44 -75 -44h-44q-58 0 -98.5 41t-40.5 98v165q0 57 40.5 98t98.5 41h44q40 0 75 -45v134h-59v58h59v116zM248 335h-45q-19 0 -32.5 -13.5t-13.5 -32.5v-147q0 -18 13.5 -31.5t32.5 -13.5h45q19 0 32.5 13.5t13.5 31.5v147
q0 19 -13.5 32.5t-32.5 13.5z" />
    <glyph glyph-name="Emacron" unicode="&#x112;" horiz-adv-x="462" 
d="M144 830h204v-77h-204v77zM186 312v-182h244v-130h-374v700h374v-130h-244v-128h244v-130h-244z" />
    <glyph glyph-name="emacron" unicode="&#x113;" 
d="M104 567h204v-77h-204v77zM261 123v26h122v-16q0 -57 -41 -98t-98 -41h-72q-59 0 -99.5 41t-40.5 98v165q0 57 40.5 98t99.5 41h72q57 0 98 -41t41 -98v-114h-230v-61q0 -10 8.5 -18t19.5 -8h54q11 0 18.5 7.5t7.5 18.5zM153 308v-49h118v49q0 11 -8 19t-18 8h-64
q-11 0 -19.5 -8t-8.5 -19z" />
    <glyph glyph-name="Ebreve" unicode="&#x114;" horiz-adv-x="462" 
d="M205 841v-8q0 -12 11.5 -20.5t26.5 -8.5q16 0 28 8.5t12 20.5v8h62v-8q0 -38 -30 -64t-72 -26q-43 0 -71.5 26t-28.5 64v8h62zM186 312v-182h244v-130h-374v700h374v-130h-244v-128h244v-130h-244z" />
    <glyph glyph-name="ebreve" unicode="&#x115;" 
d="M167 578v-8q0 -12 11.5 -20.5t26.5 -8.5q16 0 28 8.5t12 20.5v8h62v-8q0 -38 -30 -64t-72 -26q-43 0 -71.5 26t-28.5 64v8h62zM261 123v26h122v-16q0 -57 -41 -98t-98 -41h-72q-59 0 -99.5 41t-40.5 98v165q0 57 40.5 98t99.5 41h72q57 0 98 -41t41 -98v-114h-230v-61
q0 -10 8.5 -18t19.5 -8h54q11 0 18.5 7.5t7.5 18.5zM153 308v-49h118v49q0 11 -8 19t-18 8h-64q-11 0 -19.5 -8t-8.5 -19z" />
    <glyph glyph-name="Edotaccent" unicode="&#x116;" horiz-adv-x="462" 
d="M292 753h-97v89h97v-89zM186 312v-182h244v-130h-374v700h374v-130h-244v-128h244v-130h-244z" />
    <glyph glyph-name="edotaccent" unicode="&#x117;" 
d="M255 490h-97v89h97v-89zM261 123v26h122v-16q0 -57 -41 -98t-98 -41h-72q-59 0 -99.5 41t-40.5 98v165q0 57 40.5 98t99.5 41h72q57 0 98 -41t41 -98v-114h-230v-61q0 -10 8.5 -18t19.5 -8h54q11 0 18.5 7.5t7.5 18.5zM153 308v-49h118v49q0 11 -8 19t-18 8h-64
q-11 0 -19.5 -8t-8.5 -19z" />
    <glyph glyph-name="Eogonek" unicode="&#x118;" horiz-adv-x="462" 
d="M56 0v700h374v-130h-244v-128h244v-130h-244v-182h244v-130h-374zM236 -12h75q-37 -31 -46 -45t-7 -35q1 -7 8 -12t14 -5h13l16 -56h-53q-37 0 -61.5 23.5t-24.5 52.5q0 48 66 77z" />
    <glyph glyph-name="eogonek" unicode="&#x119;" 
d="M383 149v-16q0 -57 -41 -98t-98 -41h-72q-59 0 -99.5 41t-40.5 98v165q0 57 40.5 98t99.5 41h72q57 0 98 -41t41 -98v-114h-230v-61q0 -10 8.5 -18t19.5 -8h54q11 0 18.5 7.5t7.5 18.5v26h122zM271 259v49q0 11 -8 19t-18 8h-64q-11 0 -19.5 -8t-8.5 -19v-49h118z
M185 -12h75q-37 -31 -46 -45t-7 -35q1 -7 8 -12t14 -5h13l16 -56h-53q-37 0 -61.5 23.5t-24.5 52.5q0 48 66 77z" />
    <glyph glyph-name="Ecaron" unicode="&#x11a;" horiz-adv-x="462" 
d="M216 753l-78 120h67l39 -61l40 61h67l-78 -120h-57zM56 0v700h374v-130h-244v-128h244v-130h-244v-182h244v-130h-374z" />
    <glyph glyph-name="ecaron" unicode="&#x11b;" 
d="M178 490l-78 120h67l39 -61l40 61h67l-78 -120h-57zM383 149v-16q0 -57 -41 -98t-98 -41h-72q-59 0 -99.5 41t-40.5 98v165q0 57 40.5 98t99.5 41h72q57 0 98 -41t41 -98v-114h-230v-61q0 -10 8.5 -18t19.5 -8h54q11 0 18.5 7.5t7.5 18.5v26h122zM271 259v49q0 11 -8 19
t-18 8h-64q-11 0 -19.5 -8t-8.5 -19v-49h118z" />
    <glyph glyph-name="Gcircumflex" unicode="&#x11c;" horiz-adv-x="500" 
d="M289 753l-40 61l-39 -61h-67l78 120h57l78 -120h-67zM463 553v-61h-131v43q0 14 -13.5 24.5t-31.5 10.5h-81q-14 0 -25 -10.5t-11 -24.5v-369q0 -14 11 -25t25 -11h90q14 0 25 11t11 25v118h-95v129h226v-265q0 -63 -44 -105.5t-104 -42.5h-127q-60 0 -104 42.5
t-44 105.5v405q0 62 43 104.5t105 42.5h127q61 0 104.5 -42.5t43.5 -104.5z" />
    <glyph glyph-name="gcircumflex" unicode="&#x11d;" horiz-adv-x="466" 
d="M275 490l-40 61l-39 -61h-67l78 120h57l78 -120h-67zM41 -113v53h121v-34q0 -19 14 -32.5t33 -13.5h44q15 0 25.5 13.5t10.5 32.5v133q-35 -45 -75 -45h-43q-56 0 -98 40t-42 99v165q0 57 40.5 98t99.5 41h43q39 0 75 -47v47h131v-540q0 -62 -40.5 -105t-98.5 -43h-101
q-59 0 -99 41t-40 97zM243 335h-44q-19 0 -33 -13.5t-14 -32.5v-147q0 -18 13.5 -31.5t33.5 -13.5h44q19 0 32.5 13.5t13.5 31.5v147q0 20 -14.5 33t-31.5 13z" />
    <glyph glyph-name="Gbreve" unicode="&#x11e;" horiz-adv-x="500" 
d="M210 841v-8q0 -12 11.5 -20.5t26.5 -8.5q16 0 28 8.5t12 20.5v8h62v-8q0 -38 -30 -64t-72 -26q-43 0 -71.5 26t-28.5 64v8h62zM463 553v-61h-131v43q0 14 -13.5 24.5t-31.5 10.5h-81q-14 0 -25 -10.5t-11 -24.5v-369q0 -14 11 -25t25 -11h90q14 0 25 11t11 25v118h-95
v129h226v-265q0 -63 -44 -105.5t-104 -42.5h-127q-60 0 -104 42.5t-44 105.5v405q0 62 43 104.5t105 42.5h127q61 0 104.5 -42.5t43.5 -104.5z" />
    <glyph glyph-name="gbreve" unicode="&#x11f;" horiz-adv-x="466" 
d="M197 578v-8q0 -12 11.5 -20.5t26.5 -8.5q16 0 28 8.5t12 20.5v8h62v-8q0 -38 -30 -64t-72 -26q-43 0 -71.5 26t-28.5 64v8h62zM41 -113v53h121v-34q0 -19 14 -32.5t33 -13.5h44q15 0 25.5 13.5t10.5 32.5v133q-35 -45 -75 -45h-43q-56 0 -98 40t-42 99v165q0 57 40.5 98
t99.5 41h43q39 0 75 -47v47h131v-540q0 -62 -40.5 -105t-98.5 -43h-101q-59 0 -99 41t-40 97zM243 335h-44q-19 0 -33 -13.5t-14 -32.5v-147q0 -18 13.5 -31.5t33.5 -13.5h44q19 0 32.5 13.5t13.5 31.5v147q0 20 -14.5 33t-31.5 13z" />
    <glyph glyph-name="Gdotaccent" unicode="&#x120;" horiz-adv-x="500" 
d="M298 753h-97v89h97v-89zM463 553v-61h-131v43q0 14 -13.5 24.5t-31.5 10.5h-81q-14 0 -25 -10.5t-11 -24.5v-369q0 -14 11 -25t25 -11h90q14 0 25 11t11 25v118h-95v129h226v-265q0 -63 -44 -105.5t-104 -42.5h-127q-60 0 -104 42.5t-44 105.5v405q0 62 43 104.5
t105 42.5h127q61 0 104.5 -42.5t43.5 -104.5z" />
    <glyph glyph-name="gdotaccent" unicode="&#x121;" horiz-adv-x="466" 
d="M284 490h-97v89h97v-89zM41 -113v53h121v-34q0 -19 14 -32.5t33 -13.5h44q15 0 25.5 13.5t10.5 32.5v133q-35 -45 -75 -45h-43q-56 0 -98 40t-42 99v165q0 57 40.5 98t99.5 41h43q39 0 75 -47v47h131v-540q0 -62 -40.5 -105t-98.5 -43h-101q-59 0 -99 41t-40 97zM243 335
h-44q-19 0 -33 -13.5t-14 -32.5v-147q0 -18 13.5 -31.5t33.5 -13.5h44q19 0 32.5 13.5t13.5 31.5v147q0 20 -14.5 33t-31.5 13z" />
    <glyph glyph-name="Hcircumflex" unicode="&#x124;" horiz-adv-x="532" 
d="M305 753l-40 61l-39 -61h-67l78 120h57l78 -120h-67zM345 700h131v-700h-131v312h-158v-312h-131v700h131v-249h158v249z" />
    <glyph glyph-name="hcircumflex" unicode="&#x125;" horiz-adv-x="491" 
d="M163 744l-40 61l-39 -61h-67l78 120h57l78 -120h-67zM189 289v-289h-131v700h131v-308q31 45 75 45h44q58 0 98.5 -41t40.5 -98v-298h-122v289q0 19 -13.5 32.5t-31.5 13.5h-45q-19 0 -32.5 -13.5t-13.5 -32.5z" />
    <glyph glyph-name="Hbar" unicode="&#x126;" horiz-adv-x="530" 
d="M363 312h-158v-312h-131v517h-60v102h60v81h131v-81h158v81h131v-81h54v-102h-54v-517h-131v312zM363 517h-158v-66h158v66z" />
    <glyph glyph-name="hbar" unicode="&#x127;" horiz-adv-x="497" 
d="M195 700v-81h65v-102h-65v-125q31 45 75 45h44q58 0 98.5 -41t40.5 -98v-298h-122v289q0 19 -13.5 32.5t-31.5 13.5h-45q-19 0 -32.5 -13.5t-13.5 -32.5v-289h-131v517h-64v102h64v81h131z" />
    <glyph glyph-name="Itilde" unicode="&#x128;" horiz-adv-x="280" 
d="M226 830l32 -49q-42 -34 -75 -34q-16 0 -46.5 13.5t-37.5 13.5q-19 0 -39 -20l-40 43q44 37 79 37q16 0 46.5 -13t38.5 -13q14 0 42 22zM76 700h129v-700h-129v700z" />
    <glyph glyph-name="itilde" unicode="&#x129;" horiz-adv-x="256" 
d="M215 575l32 -49q-42 -34 -75 -34q-16 0 -46.5 13.5t-37.5 13.5q-19 0 -39 -20l-40 43q44 37 79 37q16 0 46.5 -13t38.5 -13q14 0 42 22zM194 437v-437h-131v437h131z" />
    <glyph glyph-name="Imacron" unicode="&#x12a;" horiz-adv-x="270" 
d="M34 830h204v-77h-204v77zM70 700h129v-700h-129v700z" />
    <glyph glyph-name="imacron" unicode="&#x12b;" horiz-adv-x="245" 
d="M19 567h204v-77h-204v77zM189 437v-437h-131v437h131z" />
    <glyph glyph-name="Iogonek" unicode="&#x12e;" horiz-adv-x="259" 
d="M71 700h129v-700h-129v700zM99 -12h75q-37 -31 -46 -45t-7 -35q1 -7 8 -12t14 -5h13l16 -56h-53q-37 0 -61.5 23.5t-24.5 52.5q0 48 66 77z" />
    <glyph glyph-name="iogonek" unicode="&#x12f;" horiz-adv-x="233" 
d="M187 495h-131v133h131v-133zM187 437v-437h-131v437h131zM92 -12h75q-37 -31 -46 -45t-7 -35q1 -7 8 -12t14 -5h13l16 -56h-53q-37 0 -61.5 23.5t-24.5 52.5q0 48 66 77z" />
    <glyph glyph-name="Idotaccent" unicode="&#x130;" horiz-adv-x="247" 
d="M172 753h-97v89h97v-89zM59 700h129v-700h-129v700z" />
    <glyph glyph-name="dotlessi" unicode="&#x131;" horiz-adv-x="224" 
d="M178 437v-437h-131v437h131z" />
    <glyph glyph-name="IJ" unicode="&#x132;" horiz-adv-x="687" 
d="M59 700h129v-700h-129v700zM642 700v-558q0 -62 -46.5 -105t-110.5 -43h-84q-60 0 -104 42.5t-44 105.5v109h131v-91q0 -11 8 -18.5t19 -7.5h74q11 0 18.5 7.5t7.5 18.5v410h-136v130h267z" />
    <glyph glyph-name="ij" unicode="&#x133;" horiz-adv-x="423" 
d="M178 495h-131v133h131v-133zM374 495h-131v133h131v-133zM178 437v-437h-131v437h131zM377 437v-540q0 -60 -40 -104t-98 -44h-88v111h59q15 0 25.5 13.5t10.5 32.5v531h131z" />
    <glyph glyph-name="Jcircumflex" unicode="&#x134;" horiz-adv-x="469" 
d="M332 753l-40 61l-39 -61h-67l78 120h57l78 -120h-67zM293 160v410h-136v130h267v-558q0 -62 -46.5 -105t-110.5 -43h-84q-60 0 -104 42.5t-44 105.5v109h131v-91q0 -11 8 -18.5t19 -7.5h74q11 0 18.5 7.5t7.5 18.5z" />
    <glyph glyph-name="jcircumflex" unicode="&#x135;" horiz-adv-x="266" 
d="M182 490l-40 61l-39 -61h-67l78 120h57l78 -120h-67zM207 437v-540q0 -60 -40 -104t-98 -44h-88v111h59q15 0 25.5 13.5t10.5 32.5v531h131z" />
    <glyph glyph-name="Lacute" unicode="&#x139;" horiz-adv-x="423" 
d="M221 872l-70 -119h-67l30 119h107zM187 130h216v-130h-347v700h131v-570z" />
    <glyph glyph-name="lacute" unicode="&#x13a;" horiz-adv-x="234" 
d="M211 872l-70 -119h-67l30 119h107zM178 0h-131v700h131v-700z" />
    <glyph glyph-name="Lcaron" unicode="&#x13d;" horiz-adv-x="437" 
d="M102 753l-78 120h67l39 -61l40 61h67l-78 -120h-57zM201 130h216v-130h-347v700h131v-570z" />
    <glyph glyph-name="lcaron" unicode="&#x13e;" horiz-adv-x="362" 
d="M178 0h-131v700h131v-700zM223 700h97v-89l-37 -51h-43l32 51h-49v89z" />
    <glyph glyph-name="Lslash" unicode="&#x141;" horiz-adv-x="441" 
d="M205 468l69 27v-102l-69 -27v-236h216v-130h-347v316l-60 -23v102l60 23v282h131v-232z" />
    <glyph glyph-name="lslash" unicode="&#x142;" horiz-adv-x="262" 
d="M197 471l63 24v-102l-63 -24v-369h-131v318l-66 -25v102l66 25v280h131v-229z" />
    <glyph glyph-name="Nacute" unicode="&#x143;" horiz-adv-x="544" 
d="M364 872l-70 -119h-67l30 119h107zM488 0h-116l-186 405v-405h-130v700h125l177 -380v380h130v-700z" />
    <glyph glyph-name="nacute" unicode="&#x144;" horiz-adv-x="468" 
d="M302 609l-70 -119h-67l30 119h107zM176 437v-45q34 45 76 45h15q64 0 110.5 -40.5t46.5 -98.5v-298h-131v289q0 19 -13.5 32.5t-32.5 13.5h-24q-19 0 -33 -13.5t-14 -32.5v-289h-131v437h131z" />
    <glyph glyph-name="Ncaron" unicode="&#x147;" horiz-adv-x="544" 
d="M243 753l-78 120h67l39 -61l40 61h67l-78 -120h-57zM488 0h-116l-186 405v-405h-130v700h125l177 -380v380h130v-700z" />
    <glyph glyph-name="ncaron" unicode="&#x148;" horiz-adv-x="468" 
d="M205 490l-78 120h67l39 -61l40 61h67l-78 -120h-57zM176 437v-45q34 45 76 45h15q64 0 110.5 -40.5t46.5 -98.5v-298h-131v289q0 19 -13.5 32.5t-32.5 13.5h-24q-19 0 -33 -13.5t-14 -32.5v-289h-131v437h131z" />
    <glyph glyph-name="Omacron" unicode="&#x14c;" horiz-adv-x="501" 
d="M148 830h204v-77h-204v77zM187 700h127q60 0 103.5 -46.5t43.5 -110.5v-386q0 -64 -43.5 -110.5t-103.5 -46.5h-127q-62 0 -105 46.5t-43 110.5v386q0 64 43 110.5t105 46.5zM286 570h-71q-19 0 -32.5 -13.5t-13.5 -31.5v-350q0 -18 13.5 -31.5t32.5 -13.5h71
q18 0 31.5 13.5t13.5 31.5v350q0 18 -13.5 31.5t-31.5 13.5z" />
    <glyph glyph-name="omacron" unicode="&#x14d;" 
d="M105 567h204v-77h-204v77zM171 437h72q57 0 98.5 -40.5t41.5 -98.5v-165q0 -58 -41.5 -98.5t-98.5 -40.5h-72q-57 0 -98.5 40.5t-41.5 98.5v165q0 58 41.5 98.5t98.5 40.5zM234 335h-54q-10 0 -18.5 -8.5t-8.5 -18.5v-185q0 -10 8 -18t19 -8h54q11 0 19 8t8 18v185
q0 10 -8.5 18.5t-18.5 8.5z" />
    <glyph glyph-name="Obreve" unicode="&#x14e;" horiz-adv-x="501" 
d="M211 841v-8q0 -12 11.5 -20.5t26.5 -8.5q16 0 28 8.5t12 20.5v8h62v-8q0 -38 -30 -64t-72 -26q-43 0 -71.5 26t-28.5 64v8h62zM187 700h127q60 0 103.5 -46.5t43.5 -110.5v-386q0 -64 -43.5 -110.5t-103.5 -46.5h-127q-62 0 -105 46.5t-43 110.5v386q0 64 43 110.5
t105 46.5zM286 570h-71q-19 0 -32.5 -13.5t-13.5 -31.5v-350q0 -18 13.5 -31.5t32.5 -13.5h71q18 0 31.5 13.5t13.5 31.5v350q0 18 -13.5 31.5t-31.5 13.5z" />
    <glyph glyph-name="obreve" unicode="&#x14f;" 
d="M168 578v-8q0 -12 11.5 -20.5t26.5 -8.5q16 0 28 8.5t12 20.5v8h62v-8q0 -38 -30 -64t-72 -26q-43 0 -71.5 26t-28.5 64v8h62zM171 437h72q57 0 98.5 -40.5t41.5 -98.5v-165q0 -58 -41.5 -98.5t-98.5 -40.5h-72q-57 0 -98.5 40.5t-41.5 98.5v165q0 58 41.5 98.5
t98.5 40.5zM234 335h-54q-10 0 -18.5 -8.5t-8.5 -18.5v-185q0 -10 8 -18t19 -8h54q11 0 19 8t8 18v185q0 10 -8.5 18.5t-18.5 8.5z" />
    <glyph glyph-name="Ohungarumlaut" unicode="&#x150;" horiz-adv-x="501" 
d="M276 872l-70 -119h-67l30 119h107zM404 872l-70 -119h-67l30 119h107zM187 700h127q60 0 103.5 -46.5t43.5 -110.5v-386q0 -64 -43.5 -110.5t-103.5 -46.5h-127q-62 0 -105 46.5t-43 110.5v386q0 64 43 110.5t105 46.5zM286 570h-71q-19 0 -32.5 -13.5t-13.5 -31.5v-350
q0 -18 13.5 -31.5t32.5 -13.5h71q18 0 31.5 13.5t13.5 31.5v350q0 18 -13.5 31.5t-31.5 13.5z" />
    <glyph glyph-name="ohungarumlaut" unicode="&#x151;" 
d="M235 609l-70 -119h-67l30 119h107zM363 609l-70 -119h-67l30 119h107zM171 437h72q57 0 98.5 -40.5t41.5 -98.5v-165q0 -58 -41.5 -98.5t-98.5 -40.5h-72q-57 0 -98.5 40.5t-41.5 98.5v165q0 58 41.5 98.5t98.5 40.5zM234 335h-54q-10 0 -18.5 -8.5t-8.5 -18.5v-185
q0 -10 8 -18t19 -8h54q11 0 19 8t8 18v185q0 10 -8.5 18.5t-18.5 8.5z" />
    <glyph glyph-name="Racute" unicode="&#x154;" horiz-adv-x="502" 
d="M314 872l-70 -119h-67l30 119h107zM336 0l-92 274h-58v-274h-130v700h253q60 0 103.5 -42.5t43.5 -104.5v-131q0 -46 -23.5 -82.5t-60.5 -54.5l95 -285h-131zM186 404h104q14 0 25 11t11 25v95q0 14 -11 24.5t-25 10.5h-104v-166z" />
    <glyph glyph-name="racute" unicode="&#x155;" horiz-adv-x="304" 
d="M216 609l-70 -119h-67l30 119h107zM176 437v-45q31 45 76 45h26v-102h-55q-19 0 -33 -13.5t-14 -32.5v-289h-131v437h131z" />
    <glyph glyph-name="Rcaron" unicode="&#x158;" horiz-adv-x="502" 
d="M217 753l-78 120h67l39 -61l40 61h67l-78 -120h-57zM336 0l-92 274h-58v-274h-130v700h253q60 0 103.5 -42.5t43.5 -104.5v-131q0 -46 -23.5 -82.5t-60.5 -54.5l95 -285h-131zM186 404h104q14 0 25 11t11 25v95q0 14 -11 24.5t-25 10.5h-104v-166z" />
    <glyph glyph-name="rcaron" unicode="&#x159;" horiz-adv-x="317" 
d="M93 490l-78 120h67l39 -61l40 61h67l-78 -120h-57zM189 437v-45q31 45 76 45h26v-102h-55q-19 0 -33 -13.5t-14 -32.5v-289h-131v437h131z" />
    <glyph glyph-name="Sacute" unicode="&#x15a;" horiz-adv-x="489" 
d="M341 872l-70 -119h-67l30 119h107zM204 415h121q52 0 89 -37.5t37 -88.5v-148q0 -62 -43.5 -104.5t-103.5 -42.5h-119q-60 0 -103.5 42.5t-43.5 104.5v70h130v-51q0 -14 11 -25t25 -11h81q15 0 25.5 10.5t10.5 25.5v99q0 14 -13.5 24.5t-32.5 10.5h-101q-55 0 -95.5 37.5
t-40.5 89.5v132q0 62 43.5 104.5t103.5 42.5h119q59 0 103 -43.5t44 -103.5v-71h-130v53q0 14 -10.5 24.5t-25.5 10.5h-81q-14 0 -25 -10.5t-11 -24.5v-94q0 -11 10.5 -18.5t25.5 -7.5z" />
    <glyph glyph-name="sacute" unicode="&#x15b;" horiz-adv-x="412" 
d="M311 609l-70 -119h-67l30 119h107zM255 292v15q0 11 -8 19.5t-20 8.5h-41q-11 0 -19.5 -8.5t-8.5 -19.5v-31q0 -7 6 -12.5t13 -5.5h79q49 0 84.5 -31.5t35.5 -76.5v-26q0 -54 -41.5 -92t-98.5 -38h-59q-60 0 -100 40.5t-40 99.5v5h121v-15q0 -11 8.5 -19t19.5 -8h41
q11 0 19.5 8t8.5 19v23q0 11 -11.5 19.5t-26.5 8.5h-60q-50 0 -85 30t-35 72v30q0 53 40.5 91.5t99.5 38.5h50q59 0 104 -39t45 -91v-15h-121z" />
    <glyph glyph-name="Scircumflex" unicode="&#x15c;" horiz-adv-x="489" 
d="M284 753l-40 61l-39 -61h-67l78 120h57l78 -120h-67zM204 415h121q52 0 89 -37.5t37 -88.5v-148q0 -62 -43.5 -104.5t-103.5 -42.5h-119q-60 0 -103.5 42.5t-43.5 104.5v70h130v-51q0 -14 11 -25t25 -11h81q15 0 25.5 10.5t10.5 25.5v99q0 14 -13.5 24.5t-32.5 10.5h-101
q-55 0 -95.5 37.5t-40.5 89.5v132q0 62 43.5 104.5t103.5 42.5h119q59 0 103 -43.5t44 -103.5v-71h-130v53q0 14 -10.5 24.5t-25.5 10.5h-81q-14 0 -25 -10.5t-11 -24.5v-94q0 -11 10.5 -18.5t25.5 -7.5z" />
    <glyph glyph-name="scircumflex" unicode="&#x15d;" horiz-adv-x="412" 
d="M245 490l-40 61l-39 -61h-67l78 120h57l78 -120h-67zM376 307v-15h-121v15q0 11 -8 19.5t-20 8.5h-41q-11 0 -19.5 -8.5t-8.5 -19.5v-31q0 -7 6 -12.5t13 -5.5h79q49 0 84.5 -31.5t35.5 -76.5v-26q0 -54 -41.5 -92t-98.5 -38h-59q-60 0 -100 40.5t-40 99.5v5h121v-15
q0 -11 8.5 -19t19.5 -8h41q11 0 19.5 8t8.5 19v23q0 11 -11.5 19.5t-26.5 8.5h-60q-50 0 -85 30t-35 72v30q0 53 40.5 91.5t99.5 38.5h50q59 0 104 -39t45 -91z" />
    <glyph glyph-name="Scedilla" unicode="&#x15e;" horiz-adv-x="489" 
d="M321 482v53q0 14 -10.5 24.5t-25.5 10.5h-81q-14 0 -25 -10.5t-11 -24.5v-94q0 -11 10.5 -18.5t25.5 -7.5h121q52 0 89 -37.5t37 -88.5v-148q0 -62 -43.5 -104.5t-103.5 -42.5h-41l-4 -20q23 0 36.5 -16t13.5 -40q0 -29 -21.5 -52.5t-54.5 -23.5h-43l6 46h23q18 0 22 16
q5 24 -13 24h-24l12 66h-31q-60 0 -103.5 42.5t-43.5 104.5v70h130v-51q0 -14 11 -25t25 -11h81q15 0 25.5 10.5t10.5 25.5v99q0 14 -13.5 24.5t-32.5 10.5h-101q-55 0 -95.5 37.5t-40.5 89.5v132q0 62 43.5 104.5t103.5 42.5h119q59 0 103 -43.5t44 -103.5v-71h-130z" />
    <glyph glyph-name="scedilla" unicode="&#x15f;" horiz-adv-x="412" 
d="M227 335h-21q-48 0 -48 -28v-31q0 -7 6 -12.5t13 -5.5h79q49 0 84.5 -31.5t35.5 -76.5v-26q0 -54 -42 -92t-98 -38h-17l-4 -20q23 0 36.5 -16t13.5 -40q0 -29 -21.5 -52.5t-54.5 -23.5h-43l6 46h23q18 0 22 16q5 24 -13 24h-24l12 66q-56 0 -95.5 42.5t-39.5 97.5v2v3
h121v-15q0 -11 8.5 -19t19.5 -8h41q11 0 19.5 8t8.5 19v23q0 11 -11.5 19.5t-26.5 8.5h-60q-64 0 -92 37t-28 95q0 53 41 91.5t99 38.5h50q7 0 23 -2q53 -8 89.5 -44.5t36.5 -83.5v-15h-40q-5 0 -17.5 -1t-22 -1t-20 1t-16 5t-5.5 11q0 11 -8 19.5t-20 8.5z" />
    <glyph glyph-name="Scaron" unicode="&#x160;" horiz-adv-x="489" 
d="M216 753l-78 120h67l39 -61l40 61h67l-78 -120h-57zM204 415h121q52 0 89 -37.5t37 -88.5v-148q0 -62 -43.5 -104.5t-103.5 -42.5h-119q-60 0 -103.5 42.5t-43.5 104.5v70h130v-51q0 -14 11 -25t25 -11h81q15 0 25.5 10.5t10.5 25.5v99q0 14 -13.5 24.5t-32.5 10.5h-101
q-55 0 -95.5 37.5t-40.5 89.5v132q0 62 43.5 104.5t103.5 42.5h119q59 0 103 -43.5t44 -103.5v-71h-130v53q0 14 -10.5 24.5t-25.5 10.5h-81q-14 0 -25 -10.5t-11 -24.5v-94q0 -11 10.5 -18.5t25.5 -7.5z" />
    <glyph glyph-name="scaron" unicode="&#x161;" horiz-adv-x="412" 
d="M177 490l-78 120h67l39 -61l40 61h67l-78 -120h-57zM255 292v15q0 11 -8 19.5t-20 8.5h-41q-11 0 -19.5 -8.5t-8.5 -19.5v-31q0 -7 6 -12.5t13 -5.5h79q49 0 84.5 -31.5t35.5 -76.5v-26q0 -54 -41.5 -92t-98.5 -38h-59q-60 0 -100 40.5t-40 99.5v5h121v-15q0 -11 8.5 -19
t19.5 -8h41q11 0 19.5 8t8.5 19v23q0 11 -11.5 19.5t-26.5 8.5h-60q-50 0 -85 30t-35 72v30q0 53 40.5 91.5t99.5 38.5h50q59 0 104 -39t45 -91v-15h-121z" />
    <glyph glyph-name="Tcaron" unicode="&#x164;" horiz-adv-x="418" 
d="M180 753l-78 120h67l39 -61l40 61h67l-78 -120h-57zM144 570h-124v130h378v-130h-124v-570h-130v570z" />
    <glyph glyph-name="tcaron" unicode="&#x165;" horiz-adv-x="428" 
d="M297 700h97v-89l-37 -51h-43l32 51h-49v89zM91 437v172h121v-172h64v-102h-64v-195q0 -12 8.5 -20t19.5 -8h28v-112h-66q-46 0 -78.5 33t-32.5 78v224h-63v102h63z" />
    <glyph glyph-name="Tbar" unicode="&#x166;" horiz-adv-x="418" 
d="M144 353h-82v102h82v115h-124v130h378v-130h-124v-115h81v-102h-81v-353h-130v353z" />
    <glyph glyph-name="tbar" unicode="&#x167;" horiz-adv-x="318" 
d="M212 437h64v-102h-64v-195q0 -12 8.5 -20t19.5 -8h28v-112h-22q-155 0 -155 111v224h-63v102h63v35h-63v77h63v60h121v-60h63v-77h-63v-35z" />
    <glyph glyph-name="Utilde" unicode="&#x168;" horiz-adv-x="505" 
d="M340 830l32 -49q-42 -34 -75 -34q-16 0 -46.5 13.5t-37.5 13.5q-19 0 -39 -20l-40 43q44 37 79 37q16 0 46.5 -13t38.5 -13q14 0 42 22zM451 700v-553q0 -62 -43.5 -104.5t-103.5 -42.5h-100q-63 0 -110 43t-47 104v553h131v-535q0 -14 10.5 -24.5t25.5 -10.5h71
q14 0 25 10.5t11 24.5v535h130z" />
    <glyph glyph-name="utilde" unicode="&#x169;" horiz-adv-x="469" 
d="M322 575l32 -49q-42 -34 -75 -34q-16 0 -46.5 13.5t-37.5 13.5q-19 0 -39 -20l-40 43q44 37 79 37q16 0 46.5 -13t38.5 -13q14 0 42 22zM293 0v45q-34 -45 -76 -45h-14q-65 0 -111.5 40t-46.5 99v298h131v-289q0 -19 13.5 -32.5t32.5 -13.5h25q19 0 32.5 13.5t13.5 32.5
v289h131v-437h-131z" />
    <glyph glyph-name="Umacron" unicode="&#x16a;" horiz-adv-x="505" 
d="M151 830h204v-77h-204v77zM321 165v535h130v-553q0 -62 -43.5 -104.5t-103.5 -42.5h-100q-63 0 -110 43t-47 104v553h131v-535q0 -14 10.5 -24.5t25.5 -10.5h71q14 0 25 10.5t11 24.5z" />
    <glyph glyph-name="umacron" unicode="&#x16b;" horiz-adv-x="469" 
d="M133 567h204v-77h-204v77zM293 148v289h131v-437h-131v45q-34 -45 -76 -45h-14q-65 0 -111.5 40t-46.5 99v298h131v-289q0 -19 13.5 -32.5t32.5 -13.5h25q19 0 32.5 13.5t13.5 32.5z" />
    <glyph glyph-name="Ubreve" unicode="&#x16c;" horiz-adv-x="505" 
d="M214 841v-8q0 -12 11.5 -20.5t26.5 -8.5q16 0 28 8.5t12 20.5v8h62v-8q0 -38 -30 -64t-72 -26q-43 0 -71.5 26t-28.5 64v8h62zM321 165v535h130v-553q0 -62 -43.5 -104.5t-103.5 -42.5h-100q-63 0 -110 43t-47 104v553h131v-535q0 -14 10.5 -24.5t25.5 -10.5h71
q14 0 25 10.5t11 24.5z" />
    <glyph glyph-name="ubreve" unicode="&#x16d;" horiz-adv-x="469" 
d="M196 578v-8q0 -12 11.5 -20.5t26.5 -8.5q16 0 28 8.5t12 20.5v8h62v-8q0 -38 -30 -64t-72 -26q-43 0 -71.5 26t-28.5 64v8h62zM293 148v289h131v-437h-131v45q-34 -45 -76 -45h-14q-65 0 -111.5 40t-46.5 99v298h131v-289q0 -19 13.5 -32.5t32.5 -13.5h25q19 0 32.5 13.5
t13.5 32.5z" />
    <glyph glyph-name="Uring" unicode="&#x16e;" horiz-adv-x="505" 
d="M167 829q0 36 25 61.5t61 25.5q35 0 61 -26t26 -61q0 -36 -25.5 -61t-61.5 -25t-61 25t-25 61zM220 829q0 -13 10 -23t23 -10q14 0 24 10t10 23t-10.5 23.5t-23.5 10.5t-23 -10t-10 -24zM321 165v535h130v-553q0 -62 -43.5 -104.5t-103.5 -42.5h-100q-63 0 -110 43
t-47 104v553h131v-535q0 -14 10.5 -24.5t25.5 -10.5h71q14 0 25 10.5t11 24.5z" />
    <glyph glyph-name="uring" unicode="&#x16f;" horiz-adv-x="469" 
d="M148 566q0 36 25 61.5t61 25.5q35 0 61 -26t26 -61q0 -36 -25.5 -61t-61.5 -25t-61 25t-25 61zM201 566q0 -14 9.5 -23.5t23.5 -9.5t24 10t10 23q0 14 -10 24t-24 10q-13 0 -23 -10t-10 -24zM293 148v289h131v-437h-131v45q-34 -45 -76 -45h-14q-65 0 -111.5 40t-46.5 99
v298h131v-289q0 -19 13.5 -32.5t32.5 -13.5h25q19 0 32.5 13.5t13.5 32.5z" />
    <glyph glyph-name="Uhungarumlaut" unicode="&#x170;" horiz-adv-x="505" 
d="M282 872l-70 -119h-67l30 119h107zM410 872l-70 -119h-67l30 119h107zM451 700v-553q0 -62 -43.5 -104.5t-103.5 -42.5h-100q-63 0 -110 43t-47 104v553h131v-535q0 -14 10.5 -24.5t25.5 -10.5h71q14 0 25 10.5t11 24.5v535h130z" />
    <glyph glyph-name="uhungarumlaut" unicode="&#x171;" horiz-adv-x="469" 
d="M258 609l-70 -119h-67l30 119h107zM386 609l-70 -119h-67l30 119h107zM293 0v45q-34 -45 -76 -45h-14q-65 0 -111.5 40t-46.5 99v298h131v-289q0 -19 13.5 -32.5t32.5 -13.5h25q19 0 32.5 13.5t13.5 32.5v289h131v-437h-131z" />
    <glyph glyph-name="Uogonek" unicode="&#x172;" horiz-adv-x="505" 
d="M451 700v-553q0 -62 -43.5 -104.5t-103.5 -42.5h-100q-63 0 -110 43t-47 104v553h131v-535q0 -14 10.5 -24.5t25.5 -10.5h71q14 0 25 10.5t11 24.5v535h130zM221 -12h75q-37 -31 -46 -45t-7 -35q1 -7 8 -12t14 -5h13l16 -56h-53q-37 0 -61.5 23.5t-24.5 52.5q0 48 66 77z
" />
    <glyph glyph-name="uogonek" unicode="&#x173;" horiz-adv-x="469" 
d="M293 0v45q-34 -45 -76 -45h-14q-65 0 -111.5 40t-46.5 99v298h131v-289q0 -19 13.5 -32.5t32.5 -13.5h25q19 0 32.5 13.5t13.5 32.5v289h131v-437h-131zM349 -12h75q-37 -31 -46 -45t-7 -35q1 -7 8 -12t14 -5h13l16 -56h-53q-37 0 -61.5 23.5t-24.5 52.5q0 48 66 77z" />
    <glyph glyph-name="Wcircumflex" unicode="&#x174;" horiz-adv-x="748" 
d="M413 753l-40 61l-39 -61h-67l78 120h57l78 -120h-67zM286 0h-120l-141 700h142l61 -339l83 339h125l86 -340l58 340h143l-135 -700h-122l-90 381z" />
    <glyph glyph-name="wcircumflex" unicode="&#x175;" horiz-adv-x="678" 
d="M378 490l-40 61l-39 -61h-67l78 120h57l78 -120h-67zM258 0h-102l-137 437h135l63 -229l75 229h105l66 -227l61 227h135l-135 -437h-101l-83 254z" />
    <glyph glyph-name="Ycircumflex" unicode="&#x176;" horiz-adv-x="519" 
d="M299 753l-40 61l-39 -61h-67l78 120h57l78 -120h-67zM494 700l-177 -363v-337h-130v337l-162 363h136l91 -215l103 215h139z" />
    <glyph glyph-name="ycircumflex" unicode="&#x177;" horiz-adv-x="478" 
d="M278 490l-40 61l-39 -61h-67l78 120h57l78 -120h-67zM98 -251l82 259l-152 429h122l94 -268l83 268h123l-219 -688h-133z" />
    <glyph glyph-name="Ydieresis" unicode="&#x178;" horiz-adv-x="519" 
d="M238 754h-87v89h87v-89zM367 754h-87v89h87v-89zM494 700l-177 -363v-337h-130v337l-162 363h136l91 -215l103 215h139z" />
    <glyph glyph-name="Zacute" unicode="&#x179;" horiz-adv-x="459" 
d="M300 872l-70 -119h-67l30 119h107zM19 -1v117l254 453h-254v131h412v-118l-255 -453h255v-130h-412z" />
    <glyph glyph-name="zacute" unicode="&#x17a;" horiz-adv-x="409" 
d="M273 609l-70 -119h-67l30 119h107zM184 106h199v-106h-359v100l208 225h-208v112h359v-107z" />
    <glyph glyph-name="Zdotaccent" unicode="&#x17b;" horiz-adv-x="459" 
d="M280 753h-97v89h97v-89zM431 582l-255 -453h255v-130h-412v117l254 453h-254v131h412v-118z" />
    <glyph glyph-name="zdotaccent" unicode="&#x17c;" horiz-adv-x="409" 
d="M253 490h-97v89h97v-89zM24 325v112h359v-107l-199 -224h199v-106h-359v100l208 225h-208z" />
    <glyph glyph-name="Zcaron" unicode="&#x17d;" horiz-adv-x="459" 
d="M203 753l-78 120h67l39 -61l40 61h67l-78 -120h-57zM19 -1v117l254 453h-254v131h412v-118l-255 -453h255v-130h-412z" />
    <glyph glyph-name="zcaron" unicode="&#x17e;" horiz-adv-x="409" 
d="M176 490l-78 120h67l39 -61l40 61h67l-78 -120h-57zM184 106h199v-106h-359v100l208 225h-208v112h359v-107z" />
    <glyph glyph-name="florin" unicode="&#x192;" horiz-adv-x="297" 
d="M84 437v153q0 58 40 84t104 26h33v-111h-28q-12 0 -19 -8.5t-9 -23t-2 -27t1 -28t1 -17.5q1 0 1 -48h63v-102h-63v-440q0 -58 -40 -84t-104 -26h-33v111h28q31 0 27 104v335h-63v102h63z" />
    <glyph glyph-name="circumflex" unicode="&#x2c6;" horiz-adv-x="279" 
d="M179 490l-40 61l-39 -61h-67l78 120h57l78 -120h-67z" />
    <glyph glyph-name="caron" unicode="&#x2c7;" horiz-adv-x="279" 
d="M111 490l-78 120h67l39 -61l40 61h67l-78 -120h-57z" />
    <glyph glyph-name="breve" unicode="&#x2d8;" horiz-adv-x="268" 
d="M95 578v-8q0 -12 11.5 -20.5t26.5 -8.5q16 0 28 8.5t12 20.5v8h62v-8q0 -38 -30 -64t-72 -26q-43 0 -71.5 26t-28.5 64v8h62z" />
    <glyph glyph-name="dotaccent" unicode="&#x2d9;" horiz-adv-x="163" 
d="M130 490h-97v89h97v-89z" />
    <glyph glyph-name="ring" unicode="&#x2da;" horiz-adv-x="239" 
d="M33 566q0 36 25 61.5t61 25.5q35 0 61 -26t26 -61q0 -36 -25.5 -61t-61.5 -25t-61 25t-25 61zM86 566q0 -14 10 -23.5t23 -9.5q14 0 24 10t10 23q0 14 -10.5 24t-23.5 10t-23 -10t-10 -24z" />
    <glyph glyph-name="ogonek" unicode="&#x2db;" horiz-adv-x="207" 
d="M99 -12h75q-37 -31 -46 -45t-7 -35q1 -7 8 -12t14 -5h13l16 -56h-53q-37 0 -61.5 23.5t-24.5 52.5q0 48 66 77z" />
    <glyph glyph-name="tilde" unicode="&#x2dc;" horiz-adv-x="304" 
d="M239 575l32 -49q-42 -34 -75 -34q-16 0 -46.5 13.5t-37.5 13.5q-19 0 -39 -20l-40 43q44 37 79 37q16 0 46.5 -13t38.5 -13q14 0 42 22z" />
    <glyph glyph-name="hungarumlaut" unicode="&#x2dd;" horiz-adv-x="320" 
d="M166 609l-70 -119h-67l30 119h107zM294 609l-70 -119h-67l30 119h107z" />
    <glyph glyph-name="Wgrave" unicode="&#x1e80;" horiz-adv-x="748" 
d="M337 753l-70 119h107l30 -119h-67zM286 0h-120l-141 700h142l61 -339l83 339h125l86 -340l58 340h143l-135 -700h-122l-90 381z" />
    <glyph glyph-name="wgrave" unicode="&#x1e81;" horiz-adv-x="678" 
d="M304 490l-70 119h107l30 -119h-67zM258 0h-102l-137 437h135l63 -229l75 229h105l66 -227l61 227h135l-135 -437h-101l-83 254z" />
    <glyph glyph-name="Wacute" unicode="&#x1e82;" horiz-adv-x="748" 
d="M472 872l-70 -119h-67l30 119h107zM228 361l83 339h125l86 -340l58 340h143l-135 -700h-122l-90 381l-90 -381h-120l-141 700h142z" />
    <glyph glyph-name="wacute" unicode="&#x1e83;" horiz-adv-x="678" 
d="M447 609l-70 -119h-67l30 119h107zM217 208l75 229h105l66 -227l61 227h135l-135 -437h-101l-83 254l-82 -254h-102l-137 437h135z" />
    <glyph glyph-name="Wdieresis" unicode="&#x1e84;" horiz-adv-x="748" 
d="M353 754h-87v89h87v-89zM482 754h-87v89h87v-89zM286 0h-120l-141 700h142l61 -339l83 339h125l86 -340l58 340h143l-135 -700h-122l-90 381z" />
    <glyph glyph-name="wdieresis" unicode="&#x1e85;" horiz-adv-x="678" 
d="M318 490h-87v89h87v-89zM447 490h-87v89h87v-89zM258 0h-102l-137 437h135l63 -229l75 229h105l66 -227l61 227h135l-135 -437h-101l-83 254z" />
    <glyph glyph-name="endash" unicode="&#x2013;" horiz-adv-x="348" 
d="M315 174h-282v98h282v-98z" />
    <glyph glyph-name="emdash" unicode="&#x2014;" horiz-adv-x="426" 
d="M393 174h-360v98h360v-98z" />
    <glyph glyph-name="quoteleft" unicode="&#x2018;" horiz-adv-x="177" 
d="M137 560h-97v89l37 51h43l-32 -51h49v-89z" />
    <glyph glyph-name="quoteright" unicode="&#x2019;" horiz-adv-x="177" 
d="M40 700h97v-89l-37 -51h-43l32 51h-49v89z" />
    <glyph glyph-name="quotesinglbase" unicode="&#x201a;" horiz-adv-x="177" 
d="M40 89h97v-89l-37 -51h-43l32 51h-49v89z" />
    <glyph glyph-name="quotedblleft" unicode="&#x201c;" horiz-adv-x="293" 
d="M137 560h-97v89l37 51h43l-32 -51h49v-89zM253 560h-97v89l37 51h43l-32 -51h49v-89z" />
    <glyph glyph-name="quotedblright" unicode="&#x201d;" horiz-adv-x="293" 
d="M40 700h97v-89l-37 -51h-43l32 51h-49v89zM156 700h97v-89l-37 -51h-43l32 51h-49v89z" />
    <glyph glyph-name="quotedblbase" unicode="&#x201e;" horiz-adv-x="293" 
d="M40 89h97v-89l-37 -51h-43l32 51h-49v89zM156 89h97v-89l-37 -51h-43l32 51h-49v89z" />
    <glyph glyph-name="dagger" unicode="&#x2020;" horiz-adv-x="321" 
d="M209 475v-562h-97v562h-78v98h78v146h97v-146h77v-98h-77z" />
    <glyph glyph-name="daggerdbl" unicode="&#x2021;" horiz-adv-x="321" 
d="M34 475v98h78v146h97v-146h77v-98h-77v-313h77v-98h-77v-151h-97v151h-78v98h78v313h-78z" />
    <glyph glyph-name="bullet" unicode="&#x2022;" horiz-adv-x="332" 
d="M61 343q0 43 31 74t74 31q44 0 74.5 -31t30.5 -74t-30.5 -74t-74.5 -31t-74.5 30t-30.5 75z" />
    <glyph glyph-name="ellipsis" unicode="&#x2026;" horiz-adv-x="474" 
d="M150 0h-97v89h97v-89zM286 0h-97v89h97v-89zM421 0h-97v89h97v-89z" />
    <glyph glyph-name="perthousand" unicode="&#x2030;" horiz-adv-x="1100" 
d="M204 -20h-98l462 757h98zM168 719h33q51 0 87 -35.5t36 -86.5v-46q0 -50 -36 -86.5t-87 -36.5h-33q-51 0 -87 36.5t-36 86.5v46q0 51 36 86.5t87 35.5zM201 639h-33q-17 0 -29.5 -12.5t-12.5 -29.5v-46q0 -17 12.5 -29.5t29.5 -12.5h33q17 0 29.5 12.5t12.5 29.5v46
q0 17 -12.5 29.5t-29.5 12.5zM560 290h33q51 0 87 -35.5t36 -86.5v-46q0 -50 -36 -86.5t-87 -36.5h-33q-51 0 -87 36.5t-36 86.5v46q0 51 36 86.5t87 35.5zM899 290h33q51 0 87 -35.5t36 -86.5v-46q0 -50 -36 -86.5t-87 -36.5h-33q-50 0 -86.5 36.5t-36.5 86.5v46
q0 51 36 86.5t87 35.5zM593 210h-33q-17 0 -29.5 -12.5t-12.5 -29.5v-46q0 -17 12.5 -29.5t29.5 -12.5h33q17 0 29.5 12.5t12.5 29.5v46q0 17 -12.5 29.5t-29.5 12.5zM932 210h-33q-17 0 -29.5 -12.5t-12.5 -29.5v-46q0 -17 12.5 -29.5t29.5 -12.5h33q17 0 29.5 12.5
t12.5 29.5v46q0 17 -12.5 29.5t-29.5 12.5z" />
    <glyph glyph-name="guilsinglleft" unicode="&#x2039;" horiz-adv-x="311" 
d="M270 110v-115l-229 206v44l229 207v-115l-130 -114z" />
    <glyph glyph-name="guilsinglright" unicode="&#x203a;" horiz-adv-x="311" 
d="M41 452l229 -207v-44l-229 -206v115l130 113l-130 114v115z" />
    <glyph glyph-name="fraction" unicode="&#x2044;" horiz-adv-x="594" 
d="M115 -20h-98l462 757h98z" />
    <glyph glyph-name="zerosuperior" unicode="&#x2070;" horiz-adv-x="348" 
d="M147 800h53q47 0 80 -33.5t33 -80.5v-209q0 -47 -33 -80.5t-80 -33.5h-53q-46 0 -79 33.5t-33 80.5v209q0 47 32.5 80.5t79.5 33.5zM189 725h-30q-20 0 -35 -15t-15 -36v-186q0 -20 15 -35t35 -15h30q20 0 34.5 14.5t14.5 35.5v186q0 21 -14.5 36t-34.5 15z" />
    <glyph glyph-name="foursuperior" unicode="&#x2074;" horiz-adv-x="354" 
d="M18 455v68l200 277h71v-271h34v-74h-34v-92h-74v92h-197zM112 529h103v138z" />
    <glyph glyph-name="fivesuperior" unicode="&#x2075;" horiz-adv-x="329" 
d="M213 477v58q0 16 -9 27.5t-22 12.5h-141v225h241v-75h-165v-77h65q46 0 79.5 -33t33.5 -80v-58q0 -47 -33.5 -80.5t-79.5 -33.5h-37q-47 0 -79.5 36t-32.5 87h74q0 -20 11 -34t27 -14h31q15 0 26 11.5t11 27.5z" />
    <glyph glyph-name="sixsuperior" unicode="&#x2076;" horiz-adv-x="329" 
d="M109 686v-49q11 11 38 11h36q46 0 79.5 -33t33.5 -80v-58q0 -47 -33 -80.5t-80 -33.5h-36q-47 0 -79.5 33.5t-32.5 80.5v209q0 47 32.5 80.5t79.5 33.5h36q44 0 75.5 -33.5t31.5 -80.5v-21h-75v21q0 14 -9 23.5t-23 9.5h-41q-14 0 -23.5 -9.5t-9.5 -23.5zM215 477v58
q0 16 -11 27.5t-27 11.5h-24q-19 0 -31.5 -11t-12.5 -28v-58q0 -16 13 -27.5t31 -11.5h24q16 0 27 11.5t11 27.5z" />
    <glyph glyph-name="sevensuperior" unicode="&#x2077;" horiz-adv-x="295" 
d="M273 800v-67l-141 -370h-78l137 362h-159v75h241z" />
    <glyph glyph-name="eightsuperior" unicode="&#x2078;" horiz-adv-x="331" 
d="M299 497v-20q0 -47 -33 -80.5t-80 -33.5h-41q-47 0 -80 33.5t-33 80.5v20q0 63 48 97q-30 28 -30 73v43q0 37 28.5 63.5t69.5 26.5h35q39 0 68.5 -27.5t29.5 -63.5v-42q0 -46 -31 -74q49 -32 49 -96zM132 700v-50q0 -22 22 -22h24q9 0 15.5 6t6.5 16v50q0 12 -7 18.5
t-15 6.5h-24q-9 0 -15.5 -7.5t-6.5 -17.5zM113 520v-49q0 -14 11 -23.5t27 -9.5h30q16 0 27 9.5t11 23.5v49q0 13 -12 22.5t-28 9.5h-28q-16 0 -27 -9.5t-11 -22.5z" />
    <glyph glyph-name="ninesuperior" unicode="&#x2079;" horiz-adv-x="329" 
d="M220 477v49q-15 -11 -38 -11h-36q-46 0 -79.5 33t-33.5 80v58q0 47 33 80.5t80 33.5h36q47 0 79.5 -33.5t32.5 -80.5v-209q0 -47 -32.5 -80.5t-79.5 -33.5h-36q-44 0 -75.5 34t-31.5 80v21h75v-21q0 -14 9.5 -23.5t22.5 -9.5h41q14 0 23.5 9.5t9.5 23.5zM114 686v-58
q0 -16 11 -27.5t27 -11.5h24q19 0 31.5 11t12.5 28v58q0 16 -13 27.5t-31 11.5h-24q-16 0 -27 -11.5t-11 -27.5z" />
    <glyph glyph-name="zeroinferior" unicode="&#x2080;" horiz-adv-x="348" 
d="M147 337h53q47 0 80 -33.5t33 -80.5v-209q0 -47 -33 -80.5t-80 -33.5h-53q-46 0 -79 33.5t-33 80.5v209q0 47 32.5 80.5t79.5 33.5zM189 262h-30q-21 0 -35.5 -15t-14.5 -36v-186q0 -21 15 -35.5t35 -14.5h30q20 0 34.5 15t14.5 35v186q0 21 -14.5 36t-34.5 15z" />
    <glyph glyph-name="oneinferior" unicode="&#x2081;" horiz-adv-x="198" 
d="M94 347h65v-437h-75v345l-28 -18l-37 54z" />
    <glyph glyph-name="twoinferior" unicode="&#x2082;" horiz-adv-x="331" 
d="M35 -100v125q0 55 32.5 92.5t79.5 37.5h37q15 0 26 9t11 22v31q0 16 -11 27.5t-26 11.5h-37q-16 0 -27 -9.5t-11 -23.5v-31h-74v31q0 47 32.5 80.5t79.5 33.5h37q46 0 79.5 -35.5t33.5 -84.5v-31q0 -44 -33.5 -75t-79.5 -31h-37q-16 0 -27 -16t-11 -39v-50h183v-75h-257z
" />
    <glyph glyph-name="threeinferior" unicode="&#x2083;" horiz-adv-x="326" 
d="M217 14v40q0 11 -11.5 19t-26.5 8h-51v75h51q15 0 26.5 18.5t11.5 45.5q0 14 -11.5 25t-26.5 11h-42q-14 0 -23 -9.5t-9 -23.5v-31h-75v31q0 47 33 80.5t80 33.5h36q46 0 79.5 -32.5t33.5 -76.5v-38q0 -41 -32 -66q32 -25 32 -70v-40q0 -47 -33.5 -80.5t-79.5 -33.5h-30
q-47 0 -80 36t-33 87h75q0 -20 11 -34t27 -14h30q15 0 26.5 11.5t11.5 27.5z" />
    <glyph glyph-name="fourinferior" unicode="&#x2084;" horiz-adv-x="354" 
d="M18 -8v68l200 277h71v-271h34v-74h-34v-92h-74v92h-197zM112 66h103v138z" />
    <glyph glyph-name="fiveinferior" unicode="&#x2085;" horiz-adv-x="329" 
d="M213 14v58q0 16 -9 27.5t-22 12.5h-141v225h241v-75h-165v-77h65q46 0 79.5 -33t33.5 -80v-58q0 -46 -33.5 -80t-79.5 -34h-37q-47 0 -79.5 36t-32.5 87h74q0 -20 11 -34t27 -14h31q15 0 26 11.5t11 27.5z" />
    <glyph glyph-name="sixinferior" unicode="&#x2086;" horiz-adv-x="329" 
d="M109 223v-49q15 11 38 11h36q46 0 79.5 -33t33.5 -80v-58q0 -47 -33 -80.5t-80 -33.5h-36q-47 0 -79.5 33.5t-32.5 80.5v209q0 47 32.5 80.5t79.5 33.5h36q44 0 75.5 -34t31.5 -80v-21h-75v21q0 14 -9.5 23.5t-22.5 9.5h-41q-14 0 -23.5 -9.5t-9.5 -23.5zM215 14v58
q0 16 -11 27.5t-27 11.5h-24q-19 0 -31.5 -11t-12.5 -28v-58q0 -16 13 -27.5t31 -11.5h24q16 0 27 11.5t11 27.5z" />
    <glyph glyph-name="seveninferior" unicode="&#x2087;" horiz-adv-x="295" 
d="M273 337v-67l-141 -370h-78l137 362h-159v75h241z" />
    <glyph glyph-name="eightinferior" unicode="&#x2088;" horiz-adv-x="331" 
d="M299 34v-20q0 -47 -33 -80.5t-80 -33.5h-41q-47 0 -80 33.5t-33 80.5v20q0 63 48 97q-30 27 -30 73v43q0 38 28.5 64t69.5 26h35q39 0 68.5 -27.5t29.5 -63.5v-42q0 -46 -31 -74q49 -32 49 -96zM132 247v-60q0 -22 22 -22h24q9 0 15.5 6.5t6.5 15.5v60q0 15 -22 15h-24
q-22 0 -22 -15zM113 57v-49q0 -14 11 -23.5t27 -9.5h30q16 0 27 9.5t11 23.5v49q0 13 -11.5 22.5t-28.5 9.5h-28q-16 0 -27 -9.5t-11 -22.5z" />
    <glyph glyph-name="nineinferior" unicode="&#x2089;" horiz-adv-x="329" 
d="M220 14v49q-11 -11 -38 -11h-36q-46 0 -79.5 33t-33.5 80v58q0 47 33 80.5t80 33.5h36q47 0 79.5 -33.5t32.5 -80.5v-209q0 -47 -32.5 -80.5t-79.5 -33.5h-36q-44 0 -75.5 33.5t-31.5 80.5v21h75v-21q0 -14 9 -23.5t23 -9.5h41q14 0 23.5 9.5t9.5 23.5zM114 223v-58
q0 -16 11 -27.5t27 -11.5h24q19 0 31.5 11t12.5 28v58q0 16 -13 27.5t-31 11.5h-24q-16 0 -27 -11.5t-11 -27.5z" />
    <glyph glyph-name="franc" unicode="&#x20a3;" horiz-adv-x="480" 
d="M74 0v99h-60v102h60v499h374v-130h-244v-128h244v-130h-244v-111h103v-102h-103v-99h-130z" />
    <glyph glyph-name="Euro" unicode="&#x20ac;" horiz-adv-x="541" 
d="M387 510v33q0 19 -13.5 32.5t-32.5 13.5h-82q-19 0 -32.5 -13.5t-13.5 -32.5v-64h149v-112h-149v-39h149v-112h-149v-57q0 -19 13.5 -33t32.5 -14h82q18 0 32 14t14 33v23h112v-42q0 -59 -41 -99.5t-98 -40.5h-120q-57 0 -98 40t-41 100v76h-55v112h55v39h-55v112h55v83
q0 58 40.5 98t98.5 40h120q58 0 98.5 -40.5t40.5 -97.5v-52h-112z" />
    <glyph glyph-name="trademark" unicode="&#x2122;" horiz-adv-x="709" 
d="M269 621h-82v-375h-79v375h-81v79h242v-79zM692 245h-79v224l-84 -223h-60l-83 223v-223h-79v454h76l116 -298l116 298h77v-455z" />
    <glyph glyph-name="onethird" unicode="&#x2153;" horiz-adv-x="744" 
d="M165 -20h-98l462 757h98zM105 700h65v-437h-75v345l-28 -18l-37 54zM638 114v40q0 11 -11.5 19t-26.5 8h-51v75h51q15 0 26.5 18.5t11.5 45.5q0 14 -11.5 25t-26.5 11h-42q-13 0 -22.5 -9.5t-9.5 -23.5v-31h-75v31q0 47 33 80.5t80 33.5h36q46 0 79.5 -32.5t33.5 -76.5
v-38q0 -41 -32 -66q32 -25 32 -70v-40q0 -47 -33 -80.5t-80 -33.5h-30q-47 0 -80 36t-33 87h75q0 -20 11 -34t27 -14h30q15 0 26.5 11.5t11.5 27.5z" />
    <glyph glyph-name="twothirds" unicode="&#x2154;" horiz-adv-x="846" 
d="M266 -20h-98l462 757h98zM29 263v125q0 55 32.5 92.5t79.5 37.5h37q15 0 26 9t11 22v31q0 16 -11 27.5t-26 11.5h-37q-16 0 -27 -9.5t-11 -23.5v-31h-74v31q0 47 32.5 80.5t79.5 33.5h37q46 0 79.5 -35.5t33.5 -84.5v-31q0 -44 -33.5 -75t-79.5 -31h-37q-16 0 -27 -16
t-11 -39v-50h183v-75h-257zM739 114v40q0 11 -11.5 19t-26.5 8h-51v75h51q15 0 26.5 18.5t11.5 45.5q0 14 -11.5 25t-26.5 11h-42q-13 0 -22.5 -9.5t-9.5 -23.5v-31h-75v31q0 47 33 80.5t80 33.5h36q46 0 79.5 -32.5t33.5 -76.5v-38q0 -41 -32 -66q32 -25 32 -70v-40
q0 -47 -33 -80.5t-80 -33.5h-30q-47 0 -80 36t-33 87h75q0 -20 11 -34t27 -14h30q15 0 26.5 11.5t11.5 27.5z" />
    <glyph glyph-name="oneeighth" unicode="&#x215b;" horiz-adv-x="751" 
d="M165 -20h-98l462 757h98zM105 700h65v-437h-75v345l-28 -18l-37 54zM720 134v-20q0 -47 -33 -80.5t-80 -33.5h-41q-47 0 -80 33.5t-33 80.5v20q0 63 48 97q-30 27 -30 73v43q0 38 28.5 64t69.5 26h35q39 0 68.5 -27.5t29.5 -63.5v-42q0 -46 -31 -74q49 -32 49 -96z
M553 347v-60q0 -22 22 -22h24q9 0 15.5 6.5t6.5 15.5v60q0 15 -22 15h-24q-22 0 -22 -15zM534 157v-49q0 -14 11 -23.5t27 -9.5h30q16 0 27 9.5t11 23.5v49q0 13 -11.5 22.5t-28.5 9.5h-28q-16 0 -27 -9.5t-11 -22.5z" />
    <glyph glyph-name="threeeighths" unicode="&#x215c;" horiz-adv-x="838" 
d="M252 -20h-98l462 757h98zM214 377v40q0 11 -11.5 19t-26.5 8h-51v75h51q15 0 26.5 18.5t11.5 45.5q0 14 -11.5 25t-26.5 11h-42q-13 0 -22.5 -9.5t-9.5 -23.5v-31h-75v31q0 47 33 80.5t80 33.5h36q46 0 79.5 -32.5t33.5 -76.5v-38q0 -41 -32 -66q32 -25 32 -70v-40
q0 -47 -33 -80.5t-80 -33.5h-30q-47 0 -80 36t-33 87h75q0 -20 11 -34t27 -14h30q15 0 26.5 11.5t11.5 27.5zM807 134v-20q0 -47 -33 -80.5t-80 -33.5h-41q-47 0 -80 33.5t-33 80.5v20q0 63 48 97q-30 27 -30 73v43q0 38 28.5 64t69.5 26h35q39 0 68.5 -27.5t29.5 -63.5v-42
q0 -46 -31 -74q49 -32 49 -96zM640 347v-60q0 -22 22 -22h24q9 0 15.5 6.5t6.5 15.5v60q0 15 -22 15h-24q-22 0 -22 -15zM621 157v-49q0 -14 11 -23.5t27 -9.5h30q16 0 27 9.5t11 23.5v49q0 13 -11.5 22.5t-28.5 9.5h-28q-16 0 -27 -9.5t-11 -22.5z" />
    <glyph glyph-name="fiveeighths" unicode="&#x215d;" horiz-adv-x="835" 
d="M249 -20h-98l462 757h98zM208 377v58q0 16 -9 27.5t-22 12.5h-141v225h241v-75h-165v-77h65q46 0 79.5 -33t33.5 -80v-58q0 -47 -33.5 -80.5t-79.5 -33.5h-37q-47 0 -79.5 36t-32.5 87h74q0 -20 11 -34t27 -14h31q15 0 26 11.5t11 27.5zM804 134v-20q0 -47 -33 -80.5
t-80 -33.5h-41q-47 0 -80 33.5t-33 80.5v20q0 63 48 97q-30 27 -30 73v43q0 38 28.5 64t69.5 26h35q39 0 68.5 -27.5t29.5 -63.5v-42q0 -46 -31 -74q49 -32 49 -96zM637 347v-60q0 -22 22 -22h24q9 0 15.5 6.5t6.5 15.5v60q0 15 -22 15h-24q-22 0 -22 -15zM618 157v-49
q0 -14 11 -23.5t27 -9.5h30q16 0 27 9.5t11 23.5v49q0 13 -11.5 22.5t-28.5 9.5h-28q-16 0 -27 -9.5t-11 -22.5z" />
    <glyph glyph-name="seveneighths" unicode="&#x215e;" horiz-adv-x="746" 
d="M160 -20h-98l462 757h98zM270 700v-67l-141 -370h-78l137 362h-159v75h241zM715 134v-20q0 -47 -33 -80.5t-80 -33.5h-41q-47 0 -80 33.5t-33 80.5v20q0 63 48 97q-30 27 -30 73v43q0 38 28.5 64t69.5 26h35q39 0 68.5 -27.5t29.5 -63.5v-42q0 -46 -31 -74q49 -32 49 -96
zM548 347v-60q0 -22 22 -22h24q9 0 15.5 6.5t6.5 15.5v60q0 15 -22 15h-24q-22 0 -22 -15zM529 157v-49q0 -14 11 -23.5t27 -9.5h30q16 0 27 9.5t11 23.5v49q0 13 -11.5 22.5t-28.5 9.5h-28q-16 0 -27 -9.5t-11 -22.5z" />
    <glyph glyph-name="minus" unicode="&#x2212;" horiz-adv-x="399" 
d="M364 174h-330v98h330v-98z" />
    <glyph glyph-name="zero.dnom" horiz-adv-x="348" 
d="M147 437h53q47 0 80 -33.5t33 -80.5v-209q0 -47 -33 -80.5t-80 -33.5h-53q-46 0 -79 33.5t-33 80.5v209q0 47 32.5 80.5t79.5 33.5zM189 362h-30q-20 0 -35 -15t-15 -36v-186q0 -20 15 -35t35 -15h30q20 0 34.5 15t14.5 35v186q0 21 -14.5 36t-34.5 15z" />
    <glyph glyph-name="one.dnom" horiz-adv-x="198" 
d="M94 437h65v-437h-75v345l-28 -18l-37 54z" />
    <glyph glyph-name="two.dnom" horiz-adv-x="331" 
d="M35 0v125q0 55 32.5 92.5t79.5 37.5h37q15 0 26 9t11 22v31q0 16 -11 27.5t-26 11.5h-37q-16 0 -27 -9.5t-11 -23.5v-31h-74v31q0 47 32.5 80.5t79.5 33.5h37q46 0 79.5 -35.5t33.5 -84.5v-31q0 -44 -33.5 -75t-79.5 -31h-37q-16 0 -27 -16t-11 -39v-50h183v-75h-257z
" />
    <glyph glyph-name="three.dnom" horiz-adv-x="326" 
d="M217 114v40q0 11 -11.5 19t-26.5 8h-51v75h51q15 0 26.5 18.5t11.5 45.5q0 14 -11.5 25t-26.5 11h-42q-13 0 -22.5 -9.5t-9.5 -23.5v-31h-75v31q0 47 33 80.5t80 33.5h36q46 0 79.5 -32.5t33.5 -76.5v-38q0 -41 -32 -66q32 -25 32 -70v-40q0 -47 -33 -80.5t-80 -33.5h-30
q-47 0 -80 36t-33 87h75q0 -20 11 -34t27 -14h30q15 0 26.5 11.5t11.5 27.5z" />
    <glyph glyph-name="four.dnom" horiz-adv-x="354" 
d="M18 92v68l200 277h71v-271h34v-74h-34v-92h-74v92h-197zM112 166h103v138z" />
    <glyph glyph-name="five.dnom" horiz-adv-x="329" 
d="M213 114v58q0 16 -9 27.5t-22 12.5h-141v225h241v-75h-165v-77h65q46 0 79.5 -33t33.5 -80v-58q0 -47 -33.5 -80.5t-79.5 -33.5h-37q-47 0 -79.5 36t-32.5 87h74q0 -20 11 -34t27 -14h31q15 0 26 11.5t11 27.5z" />
    <glyph glyph-name="six.dnom" horiz-adv-x="329" 
d="M109 323v-49q15 11 38 11h36q46 0 79.5 -33t33.5 -80v-58q0 -47 -33 -80.5t-80 -33.5h-36q-47 0 -79.5 33.5t-32.5 80.5v209q0 47 32.5 80.5t79.5 33.5h36q44 0 75.5 -33.5t31.5 -80.5v-21h-75v21q0 14 -9.5 23.5t-22.5 9.5h-41q-14 0 -23.5 -9.5t-9.5 -23.5zM215 114v58
q0 16 -11 27.5t-27 11.5h-24q-19 0 -31.5 -11t-12.5 -28v-58q0 -16 13 -27.5t31 -11.5h24q16 0 27 11.5t11 27.5z" />
    <glyph glyph-name="seven.dnom" horiz-adv-x="295" 
d="M273 437v-67l-141 -370h-78l137 362h-159v75h241z" />
    <glyph glyph-name="eight.dnom" horiz-adv-x="331" 
d="M299 134v-20q0 -47 -33 -80.5t-80 -33.5h-41q-47 0 -80 33.5t-33 80.5v20q0 63 48 97q-30 27 -30 73v43q0 38 28.5 64t69.5 26h35q39 0 68.5 -27.5t29.5 -63.5v-42q0 -46 -31 -74q49 -32 49 -96zM132 347v-60q0 -22 22 -22h24q9 0 15.5 6.5t6.5 15.5v60q0 15 -22 15h-24
q-22 0 -22 -15zM113 157v-49q0 -14 11 -23.5t27 -9.5h30q16 0 27 9.5t11 23.5v49q0 13 -11.5 22.5t-28.5 9.5h-28q-16 0 -27 -9.5t-11 -22.5z" />
    <glyph glyph-name="nine.dnom" horiz-adv-x="329" 
d="M220 114v49q-15 -11 -38 -11h-36q-46 0 -79.5 33t-33.5 80v58q0 47 33 80.5t80 33.5h36q47 0 79.5 -33.5t32.5 -80.5v-209q0 -47 -32.5 -80.5t-79.5 -33.5h-36q-44 0 -75.5 33.5t-31.5 80.5v21h75v-21q0 -14 9.5 -23.5t22.5 -9.5h41q14 0 23.5 9.5t9.5 23.5zM114 323v-58
q0 -16 11 -27.5t27 -11.5h24q19 0 31.5 11t12.5 28v58q0 16 -13 27.5t-31 11.5h-24q-16 0 -27 -11.5t-11 -27.5z" />
    <glyph glyph-name="zero.numr" horiz-adv-x="348" 
d="M147 700h53q47 0 80 -33.5t33 -80.5v-209q0 -47 -33 -80.5t-80 -33.5h-53q-46 0 -79 33.5t-33 80.5v209q0 47 32.5 80.5t79.5 33.5zM189 625h-30q-20 0 -35 -15t-15 -36v-186q0 -20 15 -35t35 -15h30q20 0 34.5 15t14.5 35v186q0 21 -14.5 36t-34.5 15z" />
    <glyph glyph-name="one.numr" horiz-adv-x="198" 
d="M94 700h65v-437h-75v345l-28 -18l-37 54z" />
    <glyph glyph-name="two.numr" horiz-adv-x="331" 
d="M35 263v125q0 55 32.5 92.5t79.5 37.5h37q15 0 26 9t11 22v31q0 16 -11 27.5t-26 11.5h-37q-16 0 -27 -9.5t-11 -23.5v-31h-74v31q0 47 32.5 80.5t79.5 33.5h37q46 0 79.5 -35.5t33.5 -84.5v-31q0 -44 -33.5 -75t-79.5 -31h-37q-16 0 -27 -16t-11 -39v-50h183v-75h-257z
" />
    <glyph glyph-name="three.numr" horiz-adv-x="326" 
d="M217 377v40q0 11 -11.5 19t-26.5 8h-51v75h51q15 0 26.5 18.5t11.5 45.5q0 14 -11.5 25t-26.5 11h-42q-13 0 -22.5 -9.5t-9.5 -23.5v-31h-75v31q0 47 33 80.5t80 33.5h36q46 0 79.5 -32.5t33.5 -76.5v-38q0 -41 -32 -66q32 -25 32 -70v-40q0 -47 -33 -80.5t-80 -33.5h-30
q-47 0 -80 36t-33 87h75q0 -20 11 -34t27 -14h30q15 0 26.5 11.5t11.5 27.5z" />
    <glyph glyph-name="four.numr" horiz-adv-x="354" 
d="M18 355v68l200 277h71v-271h34v-74h-34v-92h-74v92h-197zM112 429h103v138z" />
    <glyph glyph-name="five.numr" horiz-adv-x="329" 
d="M213 377v58q0 16 -9 27.5t-22 12.5h-141v225h241v-75h-165v-77h65q46 0 79.5 -33t33.5 -80v-58q0 -47 -33.5 -80.5t-79.5 -33.5h-37q-47 0 -79.5 36t-32.5 87h74q0 -20 11 -34t27 -14h31q15 0 26 11.5t11 27.5z" />
    <glyph glyph-name="six.numr" horiz-adv-x="329" 
d="M109 586v-49q15 11 38 11h36q46 0 79.5 -33t33.5 -80v-58q0 -47 -33 -80.5t-80 -33.5h-36q-47 0 -79.5 33.5t-32.5 80.5v209q0 47 32.5 80.5t79.5 33.5h36q44 0 75.5 -33.5t31.5 -80.5v-21h-75v21q0 14 -9.5 23.5t-22.5 9.5h-41q-14 0 -23.5 -9.5t-9.5 -23.5zM215 377v58
q0 16 -11 27.5t-27 11.5h-24q-19 0 -31.5 -11t-12.5 -28v-58q0 -16 13 -27.5t31 -11.5h24q16 0 27 11.5t11 27.5z" />
    <glyph glyph-name="seven.numr" horiz-adv-x="295" 
d="M273 700v-67l-141 -370h-78l137 362h-159v75h241z" />
    <glyph glyph-name="eight.numr" horiz-adv-x="331" 
d="M299 397v-20q0 -47 -33 -80.5t-80 -33.5h-41q-47 0 -80 33.5t-33 80.5v20q0 63 48 97q-30 27 -30 73v43q0 38 28.5 64t69.5 26h35q39 0 68.5 -27.5t29.5 -63.5v-42q0 -46 -31 -74q49 -32 49 -96zM132 600v-50q0 -22 22 -22h24q9 0 15.5 6.5t6.5 15.5v50q0 12 -7 18.5
t-15 6.5h-24q-9 0 -15.5 -7.5t-6.5 -17.5zM113 420v-49q0 -14 11 -23.5t27 -9.5h30q16 0 27 9.5t11 23.5v49q0 13 -11.5 22.5t-28.5 9.5h-28q-16 0 -27 -9.5t-11 -22.5z" />
    <glyph glyph-name="nine.numr" horiz-adv-x="329" 
d="M220 377v49q-15 -11 -38 -11h-36q-46 0 -79.5 33t-33.5 80v58q0 47 33 80.5t80 33.5h36q47 0 79.5 -33.5t32.5 -80.5v-209q0 -47 -32.5 -80.5t-79.5 -33.5h-36q-44 0 -75.5 33.5t-31.5 80.5v21h75v-21q0 -14 9.5 -23.5t22.5 -9.5h41q14 0 23.5 9.5t9.5 23.5zM114 586v-58
q0 -16 11 -27.5t27 -11.5h24q19 0 31.5 11t12.5 28v58q0 16 -13 27.5t-31 11.5h-24q-16 0 -27 -11.5t-11 -27.5z" />
    <glyph glyph-name="zero.tf" horiz-adv-x="532" 
d="M223 700h87q76 0 129 -53t53 -129v-341q0 -76 -53 -129.5t-129 -53.5h-87q-75 0 -129 53.5t-54 129.5v341q0 76 53.5 129t129.5 53zM291 589h-49q-37 0 -63.5 -27t-26.5 -63v-303q0 -37 26.5 -63.5t63.5 -26.5h49q36 0 62.5 26.5t26.5 63.5v303q0 36 -26.5 63t-62.5 27z
" />
    <glyph glyph-name="one.tf" horiz-adv-x="477" 
d="M205 700h87v-588h145v-112h-397v112h140v445l-46 -32l-53 79z" />
    <glyph glyph-name="two.tf" horiz-adv-x="505" 
d="M40 0v187q0 89 53.5 150t129.5 61h59q29 0 49.5 17.5t20.5 42.5v50q0 30 -20.5 50.5t-49.5 20.5h-59q-29 0 -50 -18t-21 -43v-35h-112v35q0 76 53.5 129t129.5 53h59q75 0 129 -56.5t54 -135.5v-50q0 -70 -54 -121t-129 -51h-59q-29 0 -50 -29t-21 -70v-75h304v-112h-416
z" />
    <glyph glyph-name="three.tf" horiz-adv-x="506" 
d="M353 177v76q0 21 -21 36.5t-49 15.5h-105v111h105q28 0 49 28.5t21 67.5q0 27 -21 47t-49 20h-69q-25 0 -43 -18t-18 -43v-35h-112v35q0 76 53.5 129t129.5 53h59q73 0 127.5 -52t54.5 -123v-45q0 -34 -18 -63.5t-50 -46.5q30 -18 49.5 -50.5t19.5 -66.5v-76
q0 -75 -54.5 -129t-128.5 -54h-61q-76 0 -129 56t-53 136h112q0 -33 20.5 -56.5t49.5 -23.5h61q29 0 49.5 21t20.5 50z" />
    <glyph glyph-name="four.tf" horiz-adv-x="585" 
d="M40 138v106l341 456h109v-450h55v-112h-55v-138h-112v138h-338zM190 250h188v258z" />
    <glyph glyph-name="five.tf" horiz-adv-x="505" 
d="M343 177v77q0 30 -17.5 50.5t-43.5 20.5q-38 0 -113.5 -0.5t-112.5 -0.5v376h388v-111h-276v-152h114q75 0 129 -54t54 -129v-77q0 -75 -54 -129t-129 -54h-59q-76 0 -129.5 56.5t-53.5 135.5h112q0 -33 21 -56.5t50 -23.5h50q29 0 49.5 21t20.5 50z" />
    <glyph glyph-name="six.tf" horiz-adv-x="504" 
d="M152 518v-114q47 45 90 45h39q75 0 129 -53.5t54 -129.5v-89q0 -76 -53.5 -129.5t-129.5 -53.5h-59q-75 0 -128.5 54t-53.5 129v341q0 75 53.5 128.5t128.5 53.5h59q71 0 122 -53t51 -129v-35h-111v35q0 25 -18.5 43t-43.5 18h-68q-25 0 -43 -18t-18 -43zM343 177v89
q0 30 -21 50.5t-50 20.5h-40q-33 0 -56.5 -20.5t-23.5 -50.5v-89q0 -29 24 -50t56 -21h40q29 0 50 21t21 50z" />
    <glyph glyph-name="seven.tf" horiz-adv-x="468" 
d="M428 700v-103l-231 -597h-116l228 589h-269v111h388z" />
    <glyph glyph-name="eight.tf" horiz-adv-x="513" 
d="M473 208v-31q0 -76 -53.5 -129.5t-129.5 -53.5h-69q-75 0 -128 54t-53 129v31q0 48 23.5 91t61.5 67q-55 47 -55 125v66q0 60 45 101.5t111 41.5h60q62 0 108.5 -43.5t46.5 -100.5v-65q0 -75 -54 -124q36 -24 61 -68t25 -91zM193 557v-95q0 -18 12.5 -30.5t30.5 -12.5h41
q18 0 30.5 12.5t12.5 30.5v95q0 13 -12.5 22.5t-30.5 9.5h-41q-18 0 -30.5 -9.5t-12.5 -22.5zM161 246v-79q0 -25 21 -43t49 -18h50q29 0 49.5 18t20.5 43v79q0 25 -21.5 43t-51.5 18h-47q-28 0 -49 -18t-21 -43z" />
    <glyph glyph-name="nine.tf" horiz-adv-x="504" 
d="M352 176v114q-47 -45 -90 -45h-39q-75 0 -129 53.5t-54 129.5v89q0 76 53.5 129.5t129.5 53.5h59q75 0 128.5 -54t53.5 -129v-341q0 -75 -53.5 -128.5t-128.5 -53.5h-59q-71 0 -122 53t-51 129v35h111v-35q0 -25 18.5 -43t43.5 -18h68q25 0 43 18t18 43zM161 517v-89
q0 -30 21 -50.5t50 -20.5h40q33 0 56.5 20.5t23.5 50.5v89q0 29 -24 50t-56 21h-40q-29 0 -50 -21t-21 -50z" />
    <glyph glyph-name="A.alt" horiz-adv-x="505" 
d="M321 284h-143v-284h-131v553q0 61 47 104t110 43h100q60 0 103.5 -42.5t43.5 -104.5v-553h-130v284zM321 413v108q0 14 -1.5 22.5t-12.5 17.5t-32 9h-47q-15 0 -24 -1.5t-17.5 -12.5t-8.5 -31v-112h143z" />
    <glyph glyph-name="K.alt" horiz-adv-x="545" 
d="M251 306h-64v-306h-131v700h131v-262h41l163 262h135l-185 -294l174 -406h-142z" />
    <glyph glyph-name="E.alt" horiz-adv-x="462" 
d="M56 0v700h374v-130h-244v-198h244v-130h-244v-112h244v-130h-374z" />
    <glyph glyph-name="F.alt" horiz-adv-x="462" 
d="M56 0v700h374v-130h-244v-198h244v-130h-244v-242h-130z" />
    <glyph glyph-name="grave.case" horiz-adv-x="193" 
d="M99 753l-70 119h107l30 -119h-67z" />
    <glyph glyph-name="dieresis.case" horiz-adv-x="290" 
d="M102 754h-87v89h87v-89zM231 754h-87v89h87v-89z" />
    <glyph glyph-name="macron.case" horiz-adv-x="236" 
d="M29 830h204v-77h-204v77z" />
    <glyph glyph-name="acute.case" horiz-adv-x="193" 
d="M166 872l-70 -119h-67l30 119h107z" />
    <glyph glyph-name="circumflex.case" horiz-adv-x="279" 
d="M179 753l-40 61l-39 -61h-67l78 120h57l78 -120h-67z" />
    <glyph glyph-name="caron.case" horiz-adv-x="279" 
d="M111 753l-78 120h67l39 -61l40 61h67l-78 -120h-57z" />
    <glyph glyph-name="breve.case" horiz-adv-x="268" 
d="M95 841v-8q0 -12 11.5 -20.5t26.5 -8.5q16 0 28 8.5t12 20.5v8h62v-8q0 -38 -30 -64t-72 -26q-43 0 -71.5 26t-28.5 64v8h62z" />
    <glyph glyph-name="dotaccent.case" horiz-adv-x="163" 
d="M130 753h-97v89h97v-89z" />
    <glyph glyph-name="ring.case" horiz-adv-x="239" 
d="M33 828q0 36 25 61.5t61 25.5q35 0 61 -26t26 -61q0 -36 -25.5 -61t-61.5 -25t-61 25t-25 61zM86 828q0 -14 10 -23.5t23 -9.5q14 0 24 10t10 23q0 14 -10.5 24t-23.5 10t-23 -10t-10 -24z" />
    <glyph glyph-name="tilde.case" horiz-adv-x="304" 
d="M239 830l32 -49q-42 -34 -75 -34q-16 0 -46.5 13.5t-37.5 13.5q-19 0 -39 -20l-40 43q44 37 79 37q16 0 46.5 -13t38.5 -13q14 0 42 22z" />
    <glyph glyph-name="hungarumlaut.case" horiz-adv-x="320" 
d="M166 872l-70 -119h-67l30 119h107zM294 872l-70 -119h-67l30 119h107z" />
    <glyph glyph-name="hyphen.case" horiz-adv-x="260" 
d="M227 302h-194v98h194v-98z" />
    <glyph glyph-name="endash.case" horiz-adv-x="348" 
d="M314 304h-281v98h281v-98z" />
    <glyph glyph-name="emdash.case" horiz-adv-x="426" 
d="M393 304h-360v98h360v-98z" />
    <glyph glyph-name="bullet.case" horiz-adv-x="237" 
d="M43 353q0 32 21.5 54t53.5 22t54 -22t22 -54q0 -31 -22 -53t-54 -22q-31 0 -53 22t-22 53z" />
    <glyph glyph-name="less.case" horiz-adv-x="357" 
d="M315 500v-83l-154 -64l154 -63v-83l-273 120v53z" />
    <glyph glyph-name="greater.case" horiz-adv-x="357" 
d="M42 207v83l154 63l-154 64v83l273 -120v-53z" />
    <glyph glyph-name="asciitilde.case" horiz-adv-x="449" 
d="M364 413l40 -71q-36 -33 -56.5 -42.5t-50.5 -9.5q-22 0 -79.5 22.5t-68.5 22.5q-16 0 -27.5 -5.5t-31.5 -22.5l-46 66q34 32 55 41.5t51 9.5q21 0 72.5 -22.5t76.5 -22.5q6 0 11.5 1t8.5 2t9.5 5t9.5 6t12.5 9.5t13.5 10.5z" />
    <glyph glyph-name="guillemotleft.case" horiz-adv-x="521" 
d="M270 240v-115l-229 206v44l229 207v-115l-130 -114zM480 240v-115l-229 206v44l229 207v-115l-130 -114z" />
    <glyph glyph-name="guillemotright.case" horiz-adv-x="521" 
d="M41 582l229 -207v-44l-229 -206v115l130 113l-130 114v115zM251 582l229 -207v-44l-229 -206v115l130 113l-130 114v115z" />
    <glyph glyph-name="guilsinglleft.case" horiz-adv-x="311" 
d="M270 240v-115l-229 206v44l229 207v-115l-130 -114z" />
    <glyph glyph-name="guilsinglright.case" horiz-adv-x="311" 
d="M41 582l229 -207v-44l-229 -206v115l130 113l-130 114v115z" />
    <glyph glyph-name="parenleft.case" horiz-adv-x="273" 
d="M252 98v-98q-80 0 -139.5 41.5t-59.5 98.5v441q0 56 59.5 97t139.5 41v-98q-41 0 -71 -20.5t-30 -49.5v-381q0 -30 30 -51t71 -21z" />
    <glyph glyph-name="parenright.case" horiz-adv-x="273" 
d="M21 0v98q41 0 71 21t30 51v381q0 29 -30 49.5t-71 20.5v98q80 0 139.5 -41t59.5 -97v-441q0 -57 -59.5 -98.5t-139.5 -41.5z" />
    <glyph glyph-name="bracketleft.case" horiz-adv-x="245" 
d="M49 0v719h175v-98h-77v-523h77v-98h-175z" />
    <glyph glyph-name="bracketright.case" horiz-adv-x="245" 
d="M98 98v523h-77v98h175v-719h-175v98h77z" />
    <glyph glyph-name="braceleft.case" horiz-adv-x="340" 
d="M150 136v74q0 44 -30.5 75.5t-70.5 31.5v93q41 0 71 30t31 71v77q4 54 53.5 92.5t114.5 38.5v-97q-29 0 -50 -32.5t-21 -74.5v-24q0 -42 -17.5 -76.5t-46.5 -51.5q29 -18 46.5 -53.5t17.5 -79.5v-33q0 -42 20.5 -71t50.5 -29v-97q-68 0 -117 40t-52 96z" />
    <glyph glyph-name="braceright.case" horiz-adv-x="340" 
d="M190 210v-74q-3 -56 -52 -96t-117 -40v97q30 0 50.5 29t20.5 71v33q0 44 17.5 79.5t46.5 53.5q-29 17 -46.5 51.5t-17.5 76.5v24q0 42 -21 74.5t-50 32.5v97q65 0 114.5 -38.5t54.5 -92.5v-77q0 -41 30 -71t71 -30v-93q-40 0 -70.5 -31.5t-30.5 -75.5z" />
    <glyph glyph-name="apple" horiz-adv-x="722" 
d="M372 540q-1 3 -1 15q0 49 38.5 91.5t93.5 51.5q0 -2 0.5 -9t0.5 -15q0 -51 -40.5 -93t-82.5 -42q-3 0 -5.5 0.5t-3.5 0.5zM638 216q-45 -99 -81 -136.5t-82 -37.5q-11 0 -52 12.5t-49 12.5q-10 0 -52.5 -12.5t-50.5 -12.5q-51 0 -102 69q-85 114 -85 238q0 87 50 142
t128 55q30 0 62 -14q32 -13 49 -13q5 0 48.5 13.5t61.5 13.5q87 0 143 -65q-80 -51 -80 -130q0 -94 92 -135z" />
    </font>
</defs>
</svg>
